<svg id="Layer_1" data-name="Layer 1" xmlns="http://www.w3.org/2000/svg" viewBox="0 0 16.14 29.18"><defs><style>.cls-1{fill:#fff}</style></defs><title>partner-logos</title><path class="cls-1" d="M5.92 17.71v1.96c0 1 0 2.1.11 3.13a.28.28 0 0 1 0 .09.7.7 0 0 0 .29.66l.32.16v-.36a7.4 7.4 0 0 0 0-.93v-.67-2.87c0-6.59 0-12.5-.28-18v-.3a.69.69 0 0 0-.16-.5L6.05 0h-.12a.28.28 0 0 0-.2.08.3.3 0 0 0-.09.24c.28 5.4.28 11.49.28 16.87zM3.06 8.4a.62.62 0 0 0-.22-.52h-.4V8a.28.28 0 0 0 0 .13 53.11 53.11 0 0 1 .32 6.31v1.5a1 1 0 0 0 0 .17.42.42 0 0 0 .26.43l.29.11v-.3c0-.85.07-1.73.07-2.64a47.54 47.54 0 0 0-.28-5.27zM11.36 13.39c0-1.56 0-3-.09-4.38v-.16a.91.91 0 0 0 0-.17.66.66 0 0 0-.14-.45l-.06-.07H11a.28.28 0 0 0-.29.31v5.82c0 1.6 0 3.2-.09 4.49a.62.62 0 0 1 0 .13v.23a.61.61 0 0 0 .13.41l.17.2.17-.19a.76.76 0 0 0 .16-.52v-.21c.07-1.83.11-3.67.11-5.44zM9.29 15.28c-.1-1.2-.16-2.49-.2-3.71v-.21a.92.92 0 0 0-.16-.62l-.07-.08h-.37v.17a.34.34 0 0 0 0 .15v.78h.11-.11v.7c.05 1.1.11 2.47.26 3.6a.25.25 0 0 0 0 .08.7.7 0 0 0 .31.65l.34.21v-.34a4 4 0 0 0-.07-.9zM1.45 26.16a1.34 1.34 0 0 0-.5-.07H.71a3.68 3.68 0 0 1-.47 0H0v3h.6a1.55 1.55 0 0 0 1.6-.82 1.81 1.81 0 0 0 .15-.74 1.43 1.43 0 0 0-.9-1.37zm-.08 2.15a1 1 0 0 1-.68.19v-1.13a6.13 6.13 0 0 1 0-.64 1 1 0 0 1 .71.18.76.76 0 0 1 .25.62 1 1 0 0 1-.28.78zM7 26.51c0-.33-.19-.4-.31-.42a.35.35 0 0 0-.26.08.49.49 0 0 0-.12.44 2.53 2.53 0 0 1 0 .28v.69a2 2 0 0 1-.07.68.48.48 0 0 1-.41.22.44.44 0 0 1-.43-.16 1.44 1.44 0 0 1-.11-.66v-.51-.68a.42.42 0 0 0-.08-.34.28.28 0 0 0-.19-.08.33.33 0 0 0-.26.07.42.42 0 0 0-.13.34v1.23a2.39 2.39 0 0 0 .09.74 1.13 1.13 0 0 0 .84.7h.45c1-.12 1-1.09 1-1.66v-.36-.53zM10.48 28.45h-.24v-2.36H9.6v.21a9.82 9.82 0 0 0 0 1v1.79h.98a1.45 1.45 0 0 0 .52-.07l.14-.07v-.47h-.16a1.73 1.73 0 0 0-.6-.03zM15 26.09a1.84 1.84 0 0 0-.33 0 1.41 1.41 0 0 0-1.31.8 1.79 1.79 0 0 0-.17.75 1.51 1.51 0 0 0 3 .45v-.62A1.4 1.4 0 0 0 15 26.09zm.32 2.11a.7.7 0 0 1-.5.33.81.81 0 0 1-.65-.18.9.9 0 0 1-.3-.68.93.93 0 0 1 .68-1h.15a.64.64 0 0 1 .46.17.94.94 0 0 1 .31.74 1.14 1.14 0 0 1-.16.62z"/></svg>