<svg id="Layer_1" data-name="Layer 1" xmlns="http://www.w3.org/2000/svg" viewBox="0 0 51.58 37.56"><defs><style>.cls-1{fill:#fff}</style></defs><title>partner-logos</title><path class="cls-1" d="M20.5 13.51a8.15 8.15 0 0 1-3.75-1l-.51-.25-.95 3.8.3.17a11 11 0 0 0 4.68 1 8 8 0 0 0 5.13-1.57A4.86 4.86 0 0 0 27.1 12c0-2.41-1.38-4.07-4.39-5.16C20.57 5.92 20 5.57 20 4.92s.8-1.12 1.93-1.12a6.69 6.69 0 0 1 3.07.72l.48.23L26.56 1l-.32-.14A10.2 10.2 0 0 0 22 0c-3.79 0-6.43 2.12-6.43 5.21 0 2.31 1.57 4 4.68 5.15 2 .67 2.35 1.2 2.35 1.8 0 1.14-1.28 1.33-2.08 1.33zM27.61.3h4.43v16.74h-4.43zM8.7 22.14L8.38 22a4.1 4.1 0 0 0-1.57-.21 1.85 1.85 0 0 0-1.41.54 2.12 2.12 0 0 0-.57 1.52 1.94 1.94 0 0 0 2 2.1 6.25 6.25 0 0 0 1.66-.24 1.72 1.72 0 0 1 .29-.1l.36 2.23a8.88 8.88 0 0 1-2.79.5A4.14 4.14 0 0 1 1.87 24c0-2.71 1.93-4.51 4.83-4.51a7.46 7.46 0 0 1 2.5.38l-.5 2.24z"/><path class="cls-1" d="M13.4 19.45A4.28 4.28 0 0 0 9.12 24c0 2.71 1.68 4.33 4.51 4.33a7.75 7.75 0 0 0 3-.53h.15l-.38-2.08-.21.09a6.52 6.52 0 0 1-2.18.33c-.91 0-1.85-.32-2.06-1.16h5.14l.05-.15a10.44 10.44 0 0 0 .06-1.05c0-2.1-1-4.29-3.83-4.29zm-.16 2.08a1.24 1.24 0 0 1 1.21 1.24h-2.54a1.41 1.41 0 0 1 1.33-1.24zM36.24 19.45A4.27 4.27 0 0 0 32 24c0 2.71 1.71 4.33 4.52 4.33a7.47 7.47 0 0 0 3-.53h.16l-.4-2.08-.21.09a6.52 6.52 0 0 1-2.18.33c-.88 0-1.83-.32-2-1.16h5.15v-.15a7.77 7.77 0 0 0 .08-1.05c0-2.1-1-4.29-3.82-4.29zm-.13 2.08a1.21 1.21 0 0 1 1.2 1.24h-2.54a1.43 1.43 0 0 1 1.34-1.24zM45.82 19.52h-1a10.72 10.72 0 0 0-2 .16 2.75 2.75 0 0 0-2.25 2.88v5.61h2.9v-4.3a1.46 1.46 0 0 1 .06-.53 1.43 1.43 0 0 1 1.51-1.12 5.76 5.76 0 0 1 .63.05l.28.06v-2.79h-.17z"/><path class="cls-1" d="M30 18.36h-2.9v1.26H26v2.25h1.1V25a3.44 3.44 0 0 0 .76 2.54 2.94 2.94 0 0 0 2.06.78 5.37 5.37 0 0 0 1.68-.25l.12-.05v-2.28l-.23.06a3.89 3.89 0 0 1-.71 0c-.53 0-.8-.19-.8-1.24v-2.71h2.18V19.6H30v-1.24zM14.88 17V7.37C14.88.72 11.14 0 9.54 0a5.39 5.39 0 0 0-.8.06C6.12.38 4.33 2.12 3.45 5.31c-.13.49-1.12 3.93-1.94 6.85L0 17h4.67l1.17-4.4a6 6 0 0 1 .16-.71h4.39V17h4.5zM9.12 7.88a1.75 1.75 0 0 1-1.75-1.72 1.77 1.77 0 0 1 1.75-1.75 1.75 1.75 0 0 1 1.74 1.75 1.73 1.73 0 0 1-1.74 1.72zM46.49 12.18c-.84-2.94-1.83-6.34-2-6.84-.81-3.18-2.6-4.94-5.25-5.26C39 .06 38.72 0 38.45 0c-1.6 0-5.3.72-5.3 7.37v9.69h4.43v-5.13H42c.11.42.15.67.15.67l1.19 4.4H48l-1.49-4.86zm-7.62-4.3a1.72 1.72 0 0 1-1.73-1.72 1.74 1.74 0 1 1 1.73 1.72zM22.06 19.45c3 0 4 2.19 4 4.25V28h-2.93v-5.23a1.15 1.15 0 0 0-1.2-1.24 1.18 1.18 0 0 0-1.21 1.24V28h-2.9v-4.3c0-2.06 1-4.25 4-4.25zM44.54 31.51a4.7 4.7 0 0 0 1.09 3 4.6 4.6 0 0 0 3.64 2c2 0 2.62-1.28 2.18-2.27A3.48 3.48 0 0 0 48 32.73a5.35 5.35 0 0 1 1.66-.73v-.05a8.82 8.82 0 0 0-4 1.51 6.07 6.07 0 0 1 3.39.23c1.25.69.46 2.31-1.2 1.74a4.74 4.74 0 0 1-2.42-1.93 4.61 4.61 0 0 1-.1-3.51c.5-1.18 1.4-1.24 1.78-.86s.23 1-.42 1.89-1.64 2.1-2.12 2.83a3.13 3.13 0 0 0-.72 2.42c.22 1.2 1.37 1.72 1.71.17a3.2 3.2 0 0 0-.36-2.23 5.91 5.91 0 0 0-1-1.38c-.65-.74-1.36-1.07-2-.7a.87.87 0 0 0 .08 1.43 2.58 2.58 0 0 0 2.1.23 2.78 2.78 0 0 1-1.62-.38c-.6-.46-.14-1.4 1-.5A2.94 2.94 0 0 1 45 36.2c-.23.63-.65.48-.82-.21a2.36 2.36 0 0 1 .17-1.31 4.57 4.57 0 0 1 1.8-1.8 8.29 8.29 0 0 0 3.16-3.36c.48-1.22-.05-2.61-1.24-2.61-2 0-3.49 2.21-3.49 4.6zM8.55 36.09c0 .34 0 1.43-1 1.43a1.26 1.26 0 0 1-.63-.13v-.84a.57.57 0 0 0 .44.23c.4 0 .38-.42.38-.69v-2.9h.84v2.9zM10.74 33.19l1 4.29h-.92l-.15-.74h-.84l-.17.74h-.79l1-4.29zM10.38 35l-.11-.65-.08.65-.19 1.11h.59L10.38 35zM12.1 37.48v-4.29h.9a1.23 1.23 0 0 1 1.45 1.26 1.18 1.18 0 0 1-1.32 1.26h-.19v1.77zM13 35c.38 0 .65-.14.65-.59s-.12-.54-.48-.54H13V35zM16.07 33.19l1 4.29h-.88l-.17-.74h-.86l-.17.74h-.84l1-4.29zM15.71 35l-.1-.65-.08.65-.19 1.15H16L15.71 35zM18.15 33.19l1.05 2.59a2.4 2.4 0 0 1-.08-.68v-1.91H20v4.29h-.8l-1.05-2.61.06.41v2.17h-.84v-4.26zM22.02 33.57h-.99v1.51h.92v.38h-.92v2.04h-.38v-4.28h1.37v.35zM24.45 35.36c0 .79-.06 2.2-1.05 2.2s-1-1.22-1-2.2.13-2.21 1-2.21 1.05 1.26 1.05 2.21zm-1.7 0c0 .75 0 1.8.63 1.8s.63-1 .63-1.8 0-1.83-.63-1.83-.63 1-.63 1.83zM26.68 36.11c0 .78-.06 1.41-.88 1.41s-.9-.65-.9-1.41v-2.92h.39v2.92c0 .72 0 1 .51 1s.48-.33.48-1v-2.92h.4v2.92zM29 37.48h-.33l-1-2.9-.13-.58c0 .3.06.55.06.84v2.61h-.33v-4.26h.33l1 3a2.23 2.23 0 0 1 .13.45c0-.17-.06-.36-.06-.57v-2.9H29v4.31zM29.58 33.19H30c.82 0 1.35.11 1.35 2.17 0 1.68-.28 2.14-1.33 2.14h-.46v-4.31zM30 37.1h.11c.75 0 .86-.55.86-1.79 0-1.47-.17-1.78-.93-1.78H30v3.57zM33.57 37.48h-.42l-.17-.9h-.92l-.15.9h-.42l.84-4.29h.36l.88 4.29zm-.65-1.24l-.29-1.66a4.82 4.82 0 0 1-.11-.86c-.06.29-.08.56-.15.86l-.23 1.66zM35.15 33.57h-.65v3.93h-.4v-3.93h-.65v-.38h1.67v.38h.03zM36.03 37.48h-.38v-4.29h.38v4.29zM38.59 35.36c0 .79-.06 2.2-1.05 2.2s-1-1.22-1-2.2.13-2.21 1-2.21 1.05 1.26 1.05 2.21zm-1.7 0c0 .75 0 1.8.63 1.8s.67-1 .67-1.8 0-1.83-.67-1.83-.63 1-.63 1.83zM40.74 37.48h-.36l-1-2.9-.14-.58a6 6 0 0 1 .06.84v2.61h-.33v-4.26h.33l1 3c.06.17.11.3.15.45 0-.17-.06-.36-.06-.57v-2.9h.33v4.31z"/></svg>