<svg id="Layer_1" data-name="Layer 1" xmlns="http://www.w3.org/2000/svg" viewBox="0 0 13.3 24.52"><defs><style>.cls-1{fill:#fff;fill-rule:evenodd}</style></defs><title>partner-logos</title><path class="cls-1" d="M13.27 2.21c0-.19-.39-.47-.52-.59l-.59-.55c-.26-.24-.91-1-1.23-1A8.42 8.42 0 0 0 9.6 0H.07A.1.1 0 0 0 0 .13v24.36c4.36.07 8.85 0 13.27 0V3.6a8 8 0 0 0 0-1.39zM6.91 4.15c.17-.24.86-.31 1.23-.39s.92-.16 1.36-.26c.14-.67-.24-1-.84-.81-.13.14-.13.41-.23.59H7c0-.62.11-1.21.2-1.79h3c.4.33.9.54 1.1 1.07.33.86-.11 2.14.07 3.21 0 .1.27 0 .29.07V7C10.49 7 9.19 7.14 8 7c-.33 0-1.16-.56-1.23-1a3.9 3.9 0 0 1 .14-1.85zM1.49 1.49h1.72a9 9 0 0 1 1.72 0 2.59 2.59 0 0 1 1.2 1.14 6.22 6.22 0 0 1 .07 1.65 5.55 5.55 0 0 1-.07 1.62A2.91 2.91 0 0 1 5.06 7 6.85 6.85 0 0 1 3.6 7a12.62 12.62 0 0 0 0 1.39H1.46V7.27c0-.14.2 0 .29-.07V2.76c0-.1-.27 0-.29-.07a9.38 9.38 0 0 1 .03-1.2zm0 7.3c1.06.19 2.63-.28 3.57.06A2.65 2.65 0 0 1 6.16 10a6.28 6.28 0 0 1 0 1.59 5.67 5.67 0 0 1-.07 1.56A2.5 2.5 0 0 1 5 14.3a9.68 9.68 0 0 1-1.46 0v1.42H1.46v-1.2c0-.13.2 0 .29-.06v-4.4c0-.1-.27 0-.29-.07a9.33 9.33 0 0 1 .03-1.2zM6.2 22a2.11 2.11 0 0 1-1 1c-.78.3-2.05-.08-3.08.07 0-.62-.15-1.19-.2-1.82h1.46a2.36 2.36 0 0 0 .19.62c.73.23 1-.24.91-1-.61-.12-1.14.05-1.59-.07a2 2 0 0 1-1.07-1.07 13.63 13.63 0 0 1-.07-2.37c0-.09-.27 0-.29-.06a9.33 9.33 0 0 1 0-1.2h2.11v1.75c0 1-.26 2.08.91 1.82v-3.55h1.78v2.82A12.23 12.23 0 0 1 6.2 22zm.68-10.45c.16-.27.83-.34 1.23-.42s.89-.23 1.39-.3c.14-.67-.22-1-.81-.84-.16.13-.17.41-.26.62H7c0-.61.14-1.13.16-1.72a.09.09 0 0 1 .07-.1c1 .16 2.17-.23 3 0a2.62 2.62 0 0 1 1.11 1.1c.26.85-.12 2.05 0 3.15 0 .1.27 0 .29.07v1.2h-1.9a11.76 11.76 0 0 1-1.88 0 2.27 2.27 0 0 1-1-.88 4.42 4.42 0 0 1 .03-1.92zm4.93 10.15c-1.11-.17-2.73.25-3.77 0a1.77 1.77 0 0 1-1-1 4.45 4.45 0 0 1 .06-1.82c.17-.3.83-.33 1.26-.42s.95-.21 1.4-.29c.09-.62-.24-1-.84-.81a1 1 0 0 0-.23.58H7.17a10.8 10.8 0 0 1 .23-1.78c1 .13 2.13-.19 2.95 0a2.39 2.39 0 0 1 1.13 1.07c.27.84-.13 2.08 0 3.18 0 .09.27 0 .3.06z"/><path class="cls-1" d="M3.57 5.87c1 .18.81-.71.81-1.62s.17-1.76-.78-1.59c-.07 1.01-.01 2.15-.03 3.21zM9.5 5.87c0-.4.09-1-.06-1.26a3 3 0 0 0-.84.22 1.22 1.22 0 0 0 0 .94c.21.14.59.09.9.1zM3.57 13.17c1 .22.81-.7.81-1.59S4.56 9.81 3.6 10c-.07 1-.01 2.12-.03 3.17zM9.5 13.2a9.22 9.22 0 0 0 0-1.3c-.29.11-.7.11-.91.29-.24.75.12 1.17.91 1.01zM9.66 19.23c-.3.1-.7.1-.9.29a1.5 1.5 0 0 0 .06.88c.19.15.59.08.91.1a4.68 4.68 0 0 0-.07-1.27z"/></svg>