<svg id="Layer_1" data-name="Layer 1" xmlns="http://www.w3.org/2000/svg" viewBox="0 0 71.05 33.81"><defs><style>.cls-1{fill:#fff}</style></defs><title>partner-logos</title><path class="cls-1" d="M0 33.81h33.8V0H0zM18.67.82L9.05 14.23l16.28 8.3-3.25-11.8-6.64 5.65-2.54-1.26 10.54-9.54 6.13 22.14L5.18 15.13 15.3.82zm2.07 18.33l-4.47-2.32 5.33-4.53 1.6 5.77zm2.69-.22l.57 1.88-2.21-1.13zM7.67 25.08l-2.59 1.13L3 24l6.49-5.59L12 19.66 6.68 24zm5.14-5l2.85 1.45-7.15 3.17-.51-.6zM.82.82h13.41L3.87 15.45l4.78 2.47-6.93 6 2.5 2.71-3.4 1.47zM.82 29l4-1.74 11.81-5.22L20 23.81l-8.74 3.85L.82 32.21zm.51 4l6.25-2.73L10.11 33zm10 0l-2.89-3.14L11 28.72 15 33zM33 33H16.17l-4.28-4.64 9.16-4L31 29.45l-2.29-8.28L33 19.3zm0-14.61l-4.54 1.94-.79-2.82L33 15.2zm0-4.17l-5.56 2.42L23.91 4 12 14.7l-1.63-.82L19.75.82H33zM37.25 33.81h33.8V0h-33.8zm33-.78H38V.78h32.27z"/><path class="cls-1" d="M43.54 9.22a2 2 0 0 0 1.52-.62 2.27 2.27 0 0 0 .56-1.26v-.08h-.75a2.06 2.06 0 0 1-.28.71 1.09 1.09 0 0 1-1 .51A1.21 1.21 0 0 1 42.56 8a2.06 2.06 0 0 1-.37-1.27 2.18 2.18 0 0 1 .4-1.43 1.33 1.33 0 0 1 1-.45 1.19 1.19 0 0 1 .81.25 1.15 1.15 0 0 1 .38.66v.06h.73v-.04A1.68 1.68 0 0 0 45 4.69a1.92 1.92 0 0 0-1.39-.48 2 2 0 0 0-1.61.73 2.63 2.63 0 0 0-.55 1.72 2.63 2.63 0 0 0 .74 2.05 2 2 0 0 0 1.38.51M50.07 9.09h.77V5.02h1.55v-.69h-3.88v.69h1.56v4.07zM55.9 6.29v-.51a2 2 0 0 1 0-.24L57.08 9v.05h.73L59 5.54v3.55h.74V4.33h-1L57.46 8.1l-1.27-3.72h-1v4.71h.73zM41.93 19.12h.76v-2.11h2.26v-.69h-2.26v-1.26h2.58v-.7h-3.34v4.76zM52.1 15.06v-.7h-3.49v4.75h3.54v-.68h-2.8V17h2.54v-.68h-2.54v-1.26h2.75zM58 18.49a1.89 1.89 0 0 1-.6.09 1.11 1.11 0 0 1-1-.42 1.27 1.27 0 0 1-.16-.61v-.06h-.72v.06a1.56 1.56 0 0 0 .48 1.24 1.9 1.9 0 0 0 1.36.46 2.43 2.43 0 0 0 1.3-.34 1.26 1.26 0 0 0 .58-1.16 1.17 1.17 0 0 0-.45-1 2.16 2.16 0 0 0-.73-.31l-.63-.15a3.77 3.77 0 0 1-.8-.24.46.46 0 0 1-.24-.44.68.68 0 0 1 .21-.49 1 1 0 0 1 .72-.22 1.06 1.06 0 0 1 .88.34 1.22 1.22 0 0 1 .18.54v.06h.71v-.07a1.36 1.36 0 0 0-.52-1.18 2.11 2.11 0 0 0-1.24-.36 1.72 1.72 0 0 0-1.24.42 1.43 1.43 0 0 0-.44 1.07 1 1 0 0 0 .46.92A2.67 2.67 0 0 0 57 17l.61.14a2.17 2.17 0 0 1 .71.26.56.56 0 0 1 .19.49.64.64 0 0 1-.49.63M64.07 19.12h.77v-4.08h1.56v-.68h-3.88v.68h1.55v4.08zM41.97 24.48h.77v4.75h-.77zM50.63 29.23l1.74-4.75h-.85l-1.27 3.79-1.27-3.79h-.85l1.74 4.75h.76zM57.9 24.47h-.81l-1.79 4.76h.8l.49-1.38h1.72l.48 1.38h.83l-1.71-4.71zm-1.07 2.73l.64-1.77.61 1.77zM63.8 24.48h-.77v4.75h3.09v-.69H63.8v-4.06z"/></svg>