<svg id="Layer_1" data-name="Layer 1" xmlns="http://www.w3.org/2000/svg" viewBox="0 0 80.54 37.7"><defs><style>.cls-1{fill:#fff}</style></defs><title>partner-logos</title><path class="cls-1" d="M30.83 13.75A6.88 6.88 0 1 0 24 6.87a6.88 6.88 0 0 0 6.88 6.88m0-12.22a5.35 5.35 0 1 1-5.35 5.34 5.34 5.34 0 0 1 5.35-5.34M13.59 18.85a5.26 5.26 0 0 1 5.26-5.26v-1.5a6.77 6.77 0 1 0 6.76 6.76h-1.49a5.27 5.27 0 0 1-10.53 0"/><path class="cls-1" d="M9.08 18.85a9.78 9.78 0 0 0 19.55 0h-1.5a8.28 8.28 0 1 1-8.28-8.27v-1.5a9.78 9.78 0 0 0-9.77 9.77"/><path class="cls-1" d="M6.05 18.85a12.79 12.79 0 1 0 25.58 0h-1.5A11.28 11.28 0 1 1 18.85 7.59V6.07a12.78 12.78 0 0 0-12.8 12.78"/><path class="cls-1" d="M18.85 3a15.83 15.83 0 1 0 15.83 15.85h-1.51A14.32 14.32 0 1 1 18.85 4.54V3"/><path class="cls-1" d="M18.85 36.2a17.35 17.35 0 0 1 0-34.7V0A18.85 18.85 0 1 0 37.7 18.85h-1.49A17.35 17.35 0 0 1 18.85 36.2M46.52 16.46a5.94 5.94 0 0 0 2.19-.41V12h-2.57v1.28h1v1.83a4.7 4.7 0 0 1-.68 0c-1.13 0-2-.59-2-2.53s.89-2.5 2.22-2.5a5.27 5.27 0 0 1 1.75.31l.16-1.3a6.35 6.35 0 0 0-2-.33c-2.28 0-3.76 1.19-3.76 3.84s1.37 3.84 3.69 3.84M72.43 16.31h1.59V8.9h-1.59v2.92h-2.39V8.9h-1.59v7.41h1.59v-3.16h2.39v3.16zM65.94 16.31v-6.08h1.62V8.9h-4.83v1.33h1.6v6.08h1.61zM58.97 13.15h2.62v-1.3h-2.62v-1.63h3.09V8.9h-4.68v7.41h4.78v-1.32h-3.19v-1.84zM53 16.53c2.11 0 3.13-1.13 3.13-3.93s-1-3.92-3.13-3.92-3.12 1.18-3.12 3.92S51 16.53 53 16.53M53 10c1 0 1.5.63 1.5 2.6s-.5 2.62-1.5 2.62-1.51-.65-1.51-2.62S52 10 53 10M80.38 14.99h-3.19v-1.84h2.61v-1.3h-2.61v-1.63h3.08V8.9h-4.68v7.41h4.79v-1.32zM57.17 20.14h1.47v5.88h1.56v-5.88h1.47v-1.28h-4.5v1.28zM43.37 18.86h1.57v7.16h-1.57zM73.76 23.53c0 .83-.28 1.29-1.06 1.29s-1.06-.47-1.06-1.29v-4.67h-1.56v4.73c0 1.71.88 2.55 2.62 2.55a2.28 2.28 0 0 0 2.61-2.55v-4.73h-1.55v4.67M54.16 20.76c0-.36.19-.73 1-.73a3.34 3.34 0 0 1 1.35.32l.17-1.25a3.79 3.79 0 0 0-1.68-.36 2.08 2.08 0 0 0-2.37 2.17c0 2.3 2.85 1.86 2.85 3.14 0 .49-.31.82-1 .82a3.45 3.45 0 0 1-1.72-.51l-.19 1.27a3.83 3.83 0 0 0 2 .51A2.14 2.14 0 0 0 57 23.88c0-2.38-2.85-2-2.85-3.12M50.12 23.04l-2.2-4.18H46.5v7.16h1.42v-4.18l2.2 4.18h1.42v-7.16h-1.42v4.18zM76.03 18.86v1.28h1.48v5.88h1.55v-5.88h1.47v-1.28h-4.5zM62.46 18.86h1.57v7.16h-1.57zM64.83 20.14h1.48v5.88h1.55v-5.88h1.48v-1.28h-4.51v1.28z"/></svg>