<svg id="Layer_1" data-name="Layer 1" xmlns="http://www.w3.org/2000/svg" viewBox="0 0 51.29 9.66"><defs><style>.cls-1{fill:#fff;fill-rule:evenodd}</style></defs><title>partner-logos</title><path class="cls-1" d="M45.82 0c1.84 3.07 3.66 6.16 5.47 9.24-.24.14-.47.29-.72.42C48.75 6.57 46.9 3.5 45.1.4c.25-.11.49-.32.72-.4zM14.31.25a4.21 4.21 0 0 1 3.32 1.22 4.64 4.64 0 0 1 .31 6.46 4.36 4.36 0 0 1-3 1.53 4.23 4.23 0 0 1-3.32-1.19 4.56 4.56 0 0 1-1.45-3.08 4.61 4.61 0 0 1 1.13-3.4A4.3 4.3 0 0 1 14.31.25zm-1.13 1.62A3.33 3.33 0 0 0 11.53 5a3.29 3.29 0 0 0 1 2.27 2.86 2.86 0 0 0 2.3.93 3 3 0 0 0 2.13-1.08 3.41 3.41 0 0 0 .81-2.43 3.66 3.66 0 0 0-.95-2.28 3 3 0 0 0-2.31-.91 3.08 3.08 0 0 0-1.33.37zM7.4 1.45c-.24.36-.53.67-.77 1a3.64 3.64 0 0 0-1.51-.93 2.88 2.88 0 0 0-2 .25 3.43 3.43 0 0 0-1.79 3.1A3.41 3.41 0 0 0 3.29 8a3 3 0 0 0 3.57-1c.33.28.61.61.94.89a4.67 4.67 0 0 1-2.07 1.4 4.45 4.45 0 0 1-3-.14A4.65 4.65 0 0 1 0 4.87a4.79 4.79 0 0 1 1.2-3.16A4.29 4.29 0 0 1 4.14.25a4.37 4.37 0 0 1 3.26 1.2zM21.77.36h.65a2.35 2.35 0 0 1 .65 0c.12 0 .31.37.42.52l2.75 3.8c1.06-1.43 2.09-2.9 3.16-4.32h1.32v9H29.4V2.49c-.88 1.14-1.75 2.4-2.63 3.58-.26-.06-.74.09-1 0-.1 0-.23-.3-.34-.45-.75-1-1.6-2.15-2.32-3.15v6.9h-1.35V.4s0-.04.01-.04zM33.78.36h.65a2.35 2.35 0 0 1 .65 0c.12 0 .31.37.42.52l2.75 3.8c1.06-1.43 2.09-2.9 3.15-4.32h1.33v9H41.4V2.49c-.87 1.14-1.74 2.4-2.62 3.58-.26-.06-.74.09-1 0-.11 0-.24-.3-.34-.45-.75-1-1.6-2.15-2.32-3.15v6.9h-1.35V.4s0-.04.01-.04z"/></svg>