<svg id="Layer_1" data-name="Layer 1" xmlns="http://www.w3.org/2000/svg" viewBox="0 0 52.47 14.27"><defs><style>.cls-1{fill:#fff}</style></defs><title>partner-logos</title><path class="cls-1" d="M14.57.19l8.81 14.06h1.37V14h-1.23L18.7 6.33 22.77.24h2V0H14.44zm4 5.92L14.87.22h7.61zM22.22 14L13.58.24 13.44 0H3.61l.12.19 8.81 14.06h9.82l-.14-.25zm-9.51 0L7.87 6.33l4-6L16.73 8zM11.65.24L7.73 6.11 4 .22h7.64zM13 14l3.87-5.8L20.5 14H13zM11.38 14L2.75.24 2.62 0H0v.24h1L5.9 8l-4 6H0v.24h11.53l-.14-.24zM6 8.23L9.67 14h-7.5zM42.29.19l8.8 14.06h1.38V14h-1.23l-4.82-7.7L50.49.24h2V0H42.16zm4 5.92L42.59.22h7.61zM49.94 14L41.3.24 41.17 0h-9.84l.12.19 8.82 14.06h9.82l-.15-.25zm-9.5 0l-4.82-7.7 4-6L44.45 8zM39.37.24l-3.92 5.87L31.76.22h7.64zM40.72 14l3.87-5.8 3.63 5.8h-7.5zM39.11 14L30.48.24 30.35 0h-2.63v.24h1L33.62 8l-4 6h-1.9v.24h11.53l-.14-.24zm-5.35-5.8l3.63 5.8h-7.5z"/></svg>