<svg id="Layer_1" data-name="Layer 1" xmlns="http://www.w3.org/2000/svg" viewBox="0 0 33.96 24.33"><defs><style>.cls-1{fill:#fff;fill-rule:evenodd}</style></defs><title>partner-logos</title><path class="cls-1" d="M21.76 20.46c-.39 0-.94-.2-1.31 0a.85.85 0 0 0 0 1.23c.51.41 1.36.43 1.46 1.27a1.1 1.1 0 0 1-1.35 1.31c-.22 0-.67-.06-.59-.33.4 0 .8.22 1.23 0a.9.9 0 0 0 .37-1.2c-.2-.48-1.29-.57-1.57-1.16a1.06 1.06 0 0 1 1.09-1.54c.25.09.71.13.67.42zM33.73 20.42c-.09.19-.32 0-.45 0a1.07 1.07 0 0 0-1.08.37c-.59.79-.42 3.19.63 3.33a1.22 1.22 0 0 0 .9-.3v-1.23c-.22 0-.62.09-.71-.08 0-.37.64-.11.94-.19v1.65a1.39 1.39 0 0 1-1.76.11c-1-.84-.85-4 .93-3.93.15-.02.62-.02.6.27zM14.69 20.42c-.18.22-.44-.05-.67-.07-.53-.05-1.31.48-.82 1.19.21.33.9.39 1.3.79a1.18 1.18 0 0 1-.56 2c-.37.06-1.12 0-1.08-.33.31-.13.41.08.63.11a.87.87 0 0 0 1-1.27c-.26-.61-1.2-.66-1.46-1a1.31 1.31 0 0 1 0-1.39c.31-.35 1.35-.45 1.66-.03zM.29 22.44c-.14.5.09 1.36-.11 1.8-.28-.16-.15-.6-.15-.9V20.2c.74.06 1.42-.18 1.79.34a1.49 1.49 0 0 1-.18 1.75c-.33.24-.78.12-1.35.15zm1.2-.33a1.25 1.25 0 0 0 0-1.57c-.33-.25-.66-.05-1.16-.12a8.26 8.26 0 0 0-.08 1.76c.45.03.95.14 1.24-.07zM3.66 20.2c.17.07.21.3.26.45.35 1.14.77 2.47 1 3.59-.49-.09-.39-.91-.6-1.27H2.91a3.47 3.47 0 0 0-.26.67c-.07.21-.06.58-.34.6a2 2 0 0 1 .22-1c.33-.94.69-2 1-3a.18.18 0 0 0 0-.11zM3 22.74a7.94 7.94 0 0 0 1.31 0c-.26-.63-.36-1.43-.67-2-.2.67-.5 1.26-.64 2zM5.71 20.2c.51 0 1.26-.09 1.61.15.68.47.43 2.16-.6 2 .3.68.79 1.18 1.09 1.87-.46 0-.56-.52-.79-.9-.08-.14-.48-.91-.67-1s-.25 0-.38 0a5 5 0 0 0 0 1c0 .33.09.74-.11.9-.21 0-.11-.3-.12-.41v-3.52zM7 22.11c.58-.23.51-1.32.15-1.57s-.73-.07-1.23-.12v1.69a2.79 2.79 0 0 0 1.08 0zM9.75 20.2c.53 1.26.89 2.68 1.31 4-.38.08-.34-.34-.41-.56a7 7 0 0 1-.22-.71H9c-.27.34-.2 1-.56 1.27-.19-.08 0-.34 0-.45.34-1.11.88-2.45 1.23-3.59zM9 22.74h1.27a11.87 11.87 0 0 0-.63-2.09c-.13.74-.43 1.35-.64 2.09zM16.79 20.2c.3.2.3.64.41 1 .3 1 .72 2.09.93 3.07-.33.05-.34-.35-.41-.56a6.73 6.73 0 0 0-.22-.71h-1.42c-.33.32-.15 1.15-.68 1.27a39.92 39.92 0 0 1 1.39-4.07zm-.64 2.54h1.27a15.35 15.35 0 0 0-.63-2c-.19.63-.53 1.36-.64 2zM22.88 20.2c.21.23.11.63.11 1v2.1c0 .34.09.72-.11.94-.27-.16-.15-.6-.15-.9V20.2zM26 23.79a19.11 19.11 0 0 0 .06-2.79c0-.28-.12-.67.12-.78s.1.3.11.41v3.63c-.43.05-.55-.48-.67-.75-.45-.94-.93-2-1.39-2.88-.07.83 0 1.87 0 2.81 0 .27.1.64-.11.82-.17-1.2 0-2.72-.07-4 .4-.14.6.57.75.86.37.88.8 1.88 1.2 2.67zM27.41 20.2a23.89 23.89 0 0 1 .07 3.1c0 .34.1.72-.11.94-.2 0-.11-.3-.11-.41V20.2zM28.79 20.2c.57 1.2 1.15 2.39 1.72 3.59.12-1 0-2.18 0-3.25 0-.08-.08-.35.11-.34s.11.32.12.45a30.39 30.39 0 0 1-.08 3.59c-.39 0-.5-.51-.63-.79-.44-.9-.9-1.9-1.35-2.8-.14 1.1.08 2.55-.12 3.59-.27-.16-.14-.6-.14-.9V20.2zM8.47 0a8.06 8.06 0 0 0 1.07 2.62A8.79 8.79 0 0 0 8 2.67s2.84 6.56 9.38 5.21c-.03 0-.76-6.48-8.91-7.88zm1.2 2.67c5.88.45 7.53 4.91 7.53 4.91a8.7 8.7 0 0 1-7.53-4.91z"/><path class="cls-1" d="M25.8 2.43s-3-2.28-5.5 1.83a19.9 19.9 0 0 0-2 5 5.23 5.23 0 0 1-5.7 4.24 5 5 0 0 0 2.73.41 7.63 7.63 0 0 1-4.72 1.46 8.6 8.6 0 0 0 9.8-2.46 17.08 17.08 0 0 0 2.29-5.24l.74-2.28s1.31-2.73 2.36-2.96z"/></svg>