<?xml version="1.0" encoding="utf-8"?>
<!-- Generator: Adobe Illustrator 22.0.0, SVG Export Plug-In . SVG Version: 6.00 Build 0)  -->
<svg version="1.1" id="Layer_1" xmlns="http://www.w3.org/2000/svg" xmlns:xlink="http://www.w3.org/1999/xlink" x="0px" y="0px"
	 viewBox="0 0 170 59.6" style="enable-background:new 0 0 170 59.6;" xml:space="preserve">
<style type="text/css">
	.st0{stroke:#FFFFFF;stroke-miterlimit:10;}
	.st1{fill:#FFFFFF;}
	.st2{fill:#010101;}
</style>
<g>
	<g>
		<path class="st1" d="M135.6,1.3l13.5,13.5l-13.5,13.6l-3.3-3.3l9.5-9.5l0.7-0.7l-0.7-0.7l-9.5-9.5L135.6,1.3 M135.6,0l-4.7,4.7
			l10.2,10.2l-10.2,10.2l4.7,4.7l14.9-14.9L135.6,0L135.6,0z"/>
	</g>
	<g>
		<path class="st1" d="M165.3,1.3l3.3,3.3l-9.5,9.5l-0.7,0.7l0.7,0.7l9.5,9.5l-3.3,3.3l-13.5-13.6L165.3,1.3 M165.3,0l-14.9,14.9
			l14.9,14.9l4.7-4.7l-10.2-10.2L170,4.7L165.3,0L165.3,0z"/>
	</g>
	<g>
		<polygon class="st1" points="0,59.6 0,29.8 6.6,29.8 6.6,43.6 20.4,29.8 25.1,34.5 		"/>
	</g>
	<g>
		<polygon class="st1" points="25.1,59.6 25.1,29.8 31.7,29.8 31.7,43.6 45.5,29.8 50.2,34.5 		"/>
	</g>
	<g>
		<polygon class="st1" points="53,59.6 53,29.8 59.6,29.8 59.6,43.6 73.4,29.8 78.1,34.5 		"/>
	</g>
	<g>
		<polygon class="st1" points="73.4,29.8 68.7,25.1 93.8,0 93.8,29.8 87.2,29.8 87.2,16 		"/>
	</g>
	<g>
		<polygon class="st1" points="96.6,29.8 96.6,0 103.2,0 103.2,13.8 117,0 121.7,4.7 		"/>
	</g>
	<g>
		<polygon class="st1" points="117,59.6 103.2,45.8 103.2,59.6 96.6,59.6 96.6,29.8 121.7,54.9 		"/>
	</g>
</g>
</svg>
