<svg id="Layer_1" data-name="Layer 1" xmlns="http://www.w3.org/2000/svg" viewBox="0 0 39.09 29.77"><defs><style>.cls-1{fill:#fff}</style></defs><title>X</title><path class="cls-1" d="M4.68 1.34l13.55 13.55L4.68 28.44l-3.34-3.35 9.53-9.53.67-.67-.67-.67-9.53-9.54 3.34-3.34m0-1.34L0 4.68l10.2 10.21L0 25.09l4.68 4.68 14.89-14.88L4.68 0z"/><path class="cls-1" d="M34.41 1.34l3.34 3.34-9.53 9.54-.67.67.67.67 9.53 9.53-3.34 3.35-13.55-13.55L34.41 1.34m0-1.34L19.52 14.89l14.89 14.88 4.68-4.68-10.2-10.2 10.2-10.21L34.41 0z"/></svg>