<svg id="Layer_1" data-name="Layer 1" xmlns="http://www.w3.org/2000/svg" viewBox="0 0 112.92 214.46"><defs><style>.cls-1{fill:#fff}</style></defs><title>press-logos</title><path class="cls-1" d="M64.69 106.69c0 2.43.2 4.87 0 7.28a6 6 0 0 0 1.78 4.73c2.15 2.42 4 5 6.06 7.59 2.79 3.51 5.51 7.08 8.27 10.62 4.83 6.19 9.86 12.23 14.45 18.6a45.56 45.56 0 0 1 8.82 27.35v30.07c0 1.5 0 1.5-1.55 1.5H88.78c-1.1 0-1.45-.23-1.45-1.4v-30a30.82 30.82 0 0 0-6.89-19.4l-12-15.68c-3.82-5-7.66-9.88-11.47-14.83-.43-.57-.72-.72-1 .06.32-1.27-.75-1.89-1.34-2.68-2.83-3.8-5.55-7.64-6.51-12.42-.08-.39-.18-.8-.73-.7a2.56 2.56 0 0 0 .85-2.08v-8.69a2.47 2.47 0 0 0 1.25.28c4.06 0 8.13.08 12.2 0a6.3 6.3 0 0 0 3-.2zM17 48.55c-.72.28-.23.9-.28 1.31a27.42 27.42 0 0 0 0 3.27v52.4c0 1.17-.28 1.56-1.47 1.56H1.05c-1.06 0-1-.58-1-1.35v-44.3-60C0 .27.34 0 1.45 0c4.47.05 8.93 0 13.4 0 1.84 0 1.84 0 1.84 1.8v11.75a21.18 21.18 0 0 0 .5 5c-.6.34-.46 1-.46 1.46v27.05a2.46 2.46 0 0 0 .27 1.49z"/><path class="cls-1" d="M47.35 117.45c.55-.1.65.31.73.7 1 4.78 3.68 8.62 6.51 12.42.59.79 1.66 1.41 1.34 2.68-3.06 3.91-6.13 7.82-9.17 11.74-4.87 6.27-9.78 12.51-14.57 18.84-4.22 5.6-6.75 11.84-6.73 19v30.31c0 1-.25 1.27-1.23 1.26q-7.11-.06-14.21 0c-.91 0-1.11-.29-1.11-1.14 0-10.93-.07-21.85.05-32.78.07-6.64 2.09-12.83 5-18.77 2.52-5.2 6.29-9.51 9.79-14q11.77-15.17 23.6-30.26zM96.13 48.27q-5.72 6-11.43 12c-3.92 4.09-7.87 8.21-11.7 12.39a30.42 30.42 0 0 0-8.23 17.89c-.26-1-.56-2-.76-3.07-.92-4.65-2.93-8.88-4.94-13.11-.83-1.76-2.1-3.27-2.74-5.13 1.15-1.32 2-2.89 3.07-4.25 2.39-2.91 5.1-5.5 7.65-8.26Q73.32 50 79.67 43.22c2.65-2.82 5.34-5.59 7.94-8.45a34.28 34.28 0 0 0 6.15-10.23A35.58 35.58 0 0 0 96.19 9.9c-.06-2.9-.04-5.9-.09-8.8 0-.8.26-1.11 1.09-1.1 4.77 0 9.55.08 14.32 0 1.13 0 1.44.36 1.35 1.4a23.6 23.6 0 0 1-.2 3.85v-.11s-.1-.12 0-.09c.36.07.2.35.16.49s-.18.13-.19-.06a5.07 5.07 0 0 1 .1 1.78v2.17l-.11 1.39a3.15 3.15 0 0 0-.31.74c-.67 3.68-1.09 7.4-2.12 11-.72 2.55-1.35 5.12-2.31 7.59a55.27 55.27 0 0 1-5.13 10.19 42.23 42.23 0 0 1-6.62 7.93z"/><path class="cls-1" d="M56.3 69.24c.64 1.86 1.91 3.37 2.74 5.13 2 4.23 4 8.46 4.94 13.11.2 1 .5 2 .76 3.07v16.14a6.3 6.3 0 0 1-3 .3c-4.07.05-8.14 0-12.2 0a2.47 2.47 0 0 1-1.25-.28c0-4.19-.08-8.38 0-12.56a30 30 0 0 0-8.75-21.93C32.25 64.6 25.08 57 17.88 49.36c-.27-.29-.57-.54-.86-.8a2.51 2.51 0 0 1-.3-1.47V20.04c0-.51-.14-1.12.46-1.46a33.79 33.79 0 0 0 5.72 13.47c2.34 3.36 5.34 6.12 8.11 9.08 7.11 7.59 14.27 15.12 21.38 22.7a35.21 35.21 0 0 1 3.91 5.41zM96.13 48.27a42.23 42.23 0 0 0 6.64-8 55.27 55.27 0 0 0 5.13-10.19c1-2.47 1.59-5 2.31-7.59 1-3.63 1.45-7.35 2.12-11a3.15 3.15 0 0 1 .31-.74c0 7.48.08 15 .09 22.44v72.24c0 1.53 0 1.53-1.48 1.53H97.39c-.94 0-1.16-.27-1.16-1.19V49.39a2.18 2.18 0 0 0-.1-1.12zM112.66 5.5c0 .19.11.29.19.06s.2-.42-.16-.49c-.15 0-.21.1 0 .09s0 .07 0 .11a.89.89 0 0 0-.03.23zM112.76 7.24zM112.75 9.38z"/></svg>