<svg id="Layer_1" data-name="Layer 1" xmlns="http://www.w3.org/2000/svg" viewBox="0 0 248.69 144.39"><defs><style>.cls-1{fill:#fff}</style></defs><title>press-logos</title><path class="cls-1" d="M89.3 34.19v-1.34V8.13c0-1 .2-1.32 1.24-1.29 2.84.07 5.68 0 8.52 0 .79 0 1.11.26 1 1v79.1c0 1.59 0 1.39-1.63 1.63-2.93.45-4.77-.67-6.16-3.2-1-1.88-1.18-1.76-3-.59a23.28 23.28 0 0 1-13.57 3.76c-7.58-.14-14.3-2.38-19.63-8a27.21 27.21 0 0 1-7-14.2c-1.32-7.11-1.38-14.2 1.59-20.94 4.22-9.54 11.5-15 22-16.07a23.34 23.34 0 0 1 14.37 3.13 15.51 15.51 0 0 1 2.27 1.73zm.18 25.06c0-4.28-.25-8.58.08-12.83.25-3.05-1.14-4.68-3.44-6-.34-.21-.68-.42-1-.6A19.47 19.47 0 0 0 74.26 38c-6.62.56-11.46 4.18-13.48 10.49a32.91 32.91 0 0 0-.59 17.74c1.13 4.84 3.59 8.87 8 11.45a17.89 17.89 0 0 0 10.54 2.05A16.4 16.4 0 0 0 88.54 76a2.38 2.38 0 0 0 1-2c-.09-4.91-.06-9.83-.06-14.75zM158.28 83.47c-1.06 1.47-2.12 2.88-3.11 4.33a1.51 1.51 0 0 1-1.48.74c-1.16-.05-2.32 0-3.48 0-.7 0-1.07-.16-1-.93a4.33 4.33 0 0 0 0-.72V8.43c0-1.57 0-1.57 1.52-1.57h7.92c1 0 1.24.33 1.23 1.29v26.06a19.09 19.09 0 0 1 9.51-4.51 26 26 0 0 1 27.54 12.44 30.69 30.69 0 0 1 4 16.89c-.18 7.18-1.67 14-6.21 19.75a24.82 24.82 0 0 1-16.9 9.48 26.54 26.54 0 0 1-14.68-1.66 17 17 0 0 1-4.86-3.13zm31.6-25.55a29.07 29.07 0 0 0-.28-4.49 23.61 23.61 0 0 0-2.06-7.22 14.15 14.15 0 0 0-11.23-8c-5.7-.86-11-.1-15.46 3.91a2.74 2.74 0 0 0-1 2.26c0 9.6.07 19.2 0 28.8a3.86 3.86 0 0 0 1.84 3.56c4.1 2.87 8.69 3.42 13.51 2.86 5.66-.66 9.65-3.75 12.23-8.73 1.92-3.87 2.5-8.01 2.45-12.95zM36.73 81.21c-6.75 6.84-15 8.48-24 6.7C5.87 86.55.8 80.16.2 73.25c-.64-7.43 2.68-12.83 8.51-17a30.6 30.6 0 0 1 15-5.29 26.73 26.73 0 0 1 11.25.89c.4.13.84.27.78-.43a20.71 20.71 0 0 0-1.29-6.54A10.06 10.06 0 0 0 26 38.65a25.07 25.07 0 0 0-13.49 1.73A14.42 14.42 0 0 0 8.34 43c-.5.47-.77.38-1.06-.2-1.21-2.34-2.41-4.68-3.68-7-.42-.77-.16-1.11.48-1.53A32.22 32.22 0 0 1 14.92 30a35.89 35.89 0 0 1 18.23.74c7.18 2.11 11.06 7.26 12.48 14.37a39.5 39.5 0 0 1 .72 8v20a18 18 0 0 0 .51 4.63 8.36 8.36 0 0 0 3.46 5.15 1.28 1.28 0 0 1 .68 1.27v3.48c0 .59-.14.86-.8.86a22 22 0 0 1-7.88-1.25 9.23 9.23 0 0 1-5-4.88c-.25-.37-.42-.79-.59-1.16zm-1-14.8v-6c0-.68-.18-1-.86-1.15A26 26 0 0 0 23.14 59c-4.95 1.17-9.09 3.55-11.4 8.3-1.83 3.7-1.43 10.11 3.79 12.12a16.39 16.39 0 0 0 6.81 1c5.22-.26 9.31-2.77 12.75-6.55a2.28 2.28 0 0 0 .64-1.71c-.04-1.92-.01-3.84-.01-5.75zM225.45 88.47c-6.25-.07-11.91-1.69-16.36-6.37a23.23 23.23 0 0 1-6-12.46 34.66 34.66 0 0 1 .61-15.06 21.52 21.52 0 0 1 18.41-16.06 25.46 25.46 0 0 1 14.51 2 19.3 19.3 0 0 1 10.43 12.36 33.73 33.73 0 0 1-.33 21.52c-3 8.23-9 12.82-17.72 13.86a35.66 35.66 0 0 1-3.55.21zm13.63-25.28a38.14 38.14 0 0 0-.74-7.2c-1.78-8-7.09-11.6-15.07-10.41-5.58.82-8.58 4.77-10.09 9.9a31.42 31.42 0 0 0-.41 14.59 15.61 15.61 0 0 0 3.54 7.74c4.06 4.66 14.72 5.26 19.15-1.26 2.79-4.1 3.54-8.66 3.62-13.36zM124.59 50.09c-5.13.07-9.92-1-14.09-4.17a21.62 21.62 0 0 1-8.13-13.31 32.88 32.88 0 0 1 .89-18.07A21.35 21.35 0 0 1 122.2.08a30 30 0 0 1 10.31.92 19 19 0 0 1 13.1 12.34 32.39 32.39 0 0 1-.48 24.21c-3 7.1-8.61 11.1-16.24 12.28a29.46 29.46 0 0 1-4.3.26zM138 25.21a35.52 35.52 0 0 0-.75-7.59c-.73-3.22-2-6.19-4.73-8.23a12.91 12.91 0 0 0-19.46 5.23c-2.75 6.49-2.6 13.19-.62 19.82 1.49 5 4.92 7.91 10.28 8.51 5.67.64 10.24-1.68 12.87-6.72A24.92 24.92 0 0 0 138 25.21zM5.74 102.83c1.78-2.13 3.72-3.72 6.35-4.07 4.3-.57 8.31-.05 11.33 3.53.62.74.69-.05.89-.28 3.75-4.27 12.77-4.92 16.64-.13a11.08 11.08 0 0 1 2.43 7c.09 7.36 0 14.72.08 22.08 0 .59-.18.75-.75.73-1.31 0-2.64-.07-4 0-1 .06-1.27-.2-1.26-1.23v-19.08a13.67 13.67 0 0 0-.34-3.44 6.29 6.29 0 0 0-9.11-3.71 8.41 8.41 0 0 0-2 1.48 4.1 4.1 0 0 0-1.35 3.17c.06 7.24 0 14.48 0 21.72 0 .81-.14 1.14-1 1.08a34.7 34.7 0 0 0-4 0c-.81 0-1-.23-1-1V109.2c0-3.27-1.82-5.26-5.09-5.63s-5.5 1.16-7.4 3.53a2.54 2.54 0 0 0-.42 1.7v21.72c0 .95-.24 1.23-1.18 1.16a26.88 26.88 0 0 0-3.59 0c-.9.07-1.11-.2-1.11-1.1v-28.56-2.16c0-.52.15-.75.67-.67H.8c3.06-.13 3.06-.13 4.45 2.63zM85.75 121.55a11.23 11.23 0 0 1-6.39-8.55c-1.49-9.12 5.26-14.45 11.82-14.46a13.41 13.41 0 0 1 7.35 1.66c.44.26.63.07.87-.23.68-.84 1.39-1.66 2.06-2.5.29-.36.5-.4.85 0 1 1 2 1.89 3 2.8.37.33.38.52 0 .81-.75.53-1.45 1.14-2.21 1.64s-.67.72-.27 1.37a13.36 13.36 0 0 1-.6 14c-2.5 3.38-6 4.63-10.06 4.93a16.36 16.36 0 0 0-5.63.94 4.72 4.72 0 0 0-1 .56c-.78.66-.63 1.51.35 1.82a7.85 7.85 0 0 0 3.31.19c2.38-.26 4.71-.9 7.12-.87a11.12 11.12 0 0 1 7.44 2.45c3.29 2.83 3.7 9.74-1 13.14a17 17 0 0 1-8.91 3.09 22.51 22.51 0 0 1-12.85-3c-1.38-.77-1.36-.79-.5-2 .6-.89 1.27-1.75 1.79-2.69.43-.75.79-.75 1.47-.31a15.28 15.28 0 0 0 10.16 2.79 9.15 9.15 0 0 0 5.29-2 3.43 3.43 0 0 0-1.15-6c-2.46-.9-4.88-.31-7.31.13a14.27 14.27 0 0 1-6.75-.07 4.5 4.5 0 0 1-3.48-3.82c-.34-2.11.68-3.5 2.39-4.55a17.92 17.92 0 0 1 2.84-1.27zm6.19-3.3a5.72 5.72 0 0 0 5.57-3.57 9.51 9.51 0 0 0 .83-4.54c-.2-5.06-4.69-8.16-9.1-6.32-2.74 1.14-4.35 4.29-4 7.85.36 3.94 3.05 6.57 6.7 6.58zM242.56 124.45c.75 1.25 1.45 2.5 2.22 3.7.4.63-.05.85-.42 1.12a15.42 15.42 0 0 1-6 2.47c-4.27.88-8.49 1-12.43-1.28a15.11 15.11 0 0 1-7.73-12 20.36 20.36 0 0 1 1.45-10.88 15.11 15.11 0 0 1 16.27-8.91c4.84.69 8.6 2.85 10.77 7.32a15.47 15.47 0 0 1 1.13 8.89c-.13 1-.59 1.16-1.48 1.15h-20.88c-1 0-1.35.2-1.27 1.28.39 5.17 3.44 9 7.8 9.8a12.72 12.72 0 0 0 10.57-2.66zm-9.26-12.71h8c.79 0 .92-.21.81-.94-.67-4.44-3.56-7.07-8.06-7.27a9 9 0 0 0-9.54 7c-.21.82-.28 1.3.87 1.26 2.62-.11 5.29-.05 7.92-.05zM66.68 111.45c.5-5.26-3.14-8.38-8.68-7.57a11.37 11.37 0 0 0-6.48 2.85c-.71-1.4-1.34-2.73-2.06-4-.41-.72-.28-1.12.41-1.52a18.78 18.78 0 0 1 11.94-2.53c2.77.31 5.42 1 7.51 3a11.32 11.32 0 0 1 3.17 7.42c.43 4.55.13 9.11.18 13.67 0 2.43.07 4.83 2.34 6.44a6.15 6.15 0 0 1 .12 2.89.69.69 0 0 1-.43.13c-3.18 0-6-.52-7.33-4.12a11.29 11.29 0 0 1-6 3.65c-3.46.8-6.87 1-10-1.19-5.34-3.88-5.5-11.49-.22-15.91a16.33 16.33 0 0 1 14.69-3.38c.31.03.57.1.84.17zm.08 8.38v-3.36a.74.74 0 0 0-.69-.9 14.27 14.27 0 0 0-5.33-.24 9.29 9.29 0 0 0-6.53 4c-2.31 3.53-.67 7.57 3.33 8.19a9 9 0 0 0 4.82-.54 9.62 9.62 0 0 0 4.12-3.18c.68-.94.15-2.17.27-3.26.03-.23.01-.47.01-.71zM114.24 106.71c-.73-1.45-1.37-2.82-2.1-4.14-.37-.66-.17-1 .4-1.32a18.73 18.73 0 0 1 11.92-2.59 19.48 19.48 0 0 1 2.83.49c4.65 1.2 7.3 4.27 7.84 9.12.56 5 .13 10.06.25 15.09a10 10 0 0 0 .66 3.74 3.54 3.54 0 0 0 1.26 1.7 1.51 1.51 0 0 1 .68 1.51c0 2 0 2-2 1.83-3-.2-4-.86-6-3.94-2.49 2.81-5.75 3.74-9.35 4.09a9.73 9.73 0 0 1-10.58-10.12c.22-5.28 4.51-9 8.77-10.38a16.69 16.69 0 0 1 9.89-.52c.27.08.67.43.78-.25a6.48 6.48 0 0 0-4.8-7 11.92 11.92 0 0 0-10.45 2.69zm15.31 13v-3.24c0-.61-.21-.83-.79-.94a13.7 13.7 0 0 0-5.22-.24c-3.28.61-6 2.06-7.21 5.36-1.29 3.46.44 6.35 4 6.85a8.94 8.94 0 0 0 4.37-.41 10 10 0 0 0 4.47-3.28c.76-1 .18-2.25.33-3.38a5.77 5.77 0 0 0 .05-.68zM194 103.11c3.82-4.58 9.72-5.92 14.72-3.39 2.9 1.46 4.18 4 4.83 7a21.72 21.72 0 0 1 .47 4.76v19.08c0 .92-.25 1.16-1.13 1.1a28.83 28.83 0 0 0-3.6 0c-.91.06-1.21-.17-1.2-1.15.05-5.72 0-11.44 0-17.16a29.73 29.73 0 0 0-.27-4.42c-.7-4.54-3.63-5.89-7.89-5.27a8.77 8.77 0 0 0-3.07 1.27 5 5 0 0 0-2.87 4.87c.18 6.91.05 13.84.09 20.76 0 .91-.24 1.16-1.13 1.1a28.86 28.86 0 0 0-3.72 0c-.87.06-1.13-.17-1.12-1.09v-22.68-7.8c0-.73.18-.93.92-.94 3.14 0 3.14-.06 4.38 2.76.24.41.43.79.59 1.2zM160.28 104.38h-15.87a9.61 9.61 0 0 0-1.2 0c-.83.11-1.12-.18-1.07-1a29 29 0 0 0 0-3.36c0-.64.21-.8.82-.8h25.08c.88 0 1.14 1.14.45 2.16-1.36 2-2.76 4-4.15 6q-6.54 9.44-13.11 18.88c.34.31.71.16 1 .16h15.71c.75 0 1.07.14 1 1-.07 1.2 0 2.4 0 3.6 0 .58-.17.74-.74.74h-25.67c-.75 0-1-.9-.52-1.76s1.09-1.57 1.65-2.35l15.75-22c.29-.42.5-.74.87-1.27zM183.33 115.47v15.11c0 .92-.24 1.16-1.13 1.1a25.3 25.3 0 0 0-3.59 0c-1 .08-1.26-.18-1.26-1.21v-24.7c0-1.71 0-1.7-1.65-1.71-.88 0-2.05.3-2.56-.14s-.18-1.72-.19-2.63c0-2.1 0-2.1 2.11-2.1h7.19c.86 0 1 .26 1 1.07.06 5.06.08 10.14.08 15.21z"/><path class="cls-1" d="M179.69 73.88a3.62 3.62 0 0 1-.07-7.24 3.66 3.66 0 0 1 3.7 3.59 3.62 3.62 0 0 1-3.63 3.65z"/></svg>