<svg id="Layer_1" data-name="Layer 1" xmlns="http://www.w3.org/2000/svg" viewBox="0 0 380.17 75.62"><defs><style>.cls-1{fill:#fff}</style></defs><title>press-logos</title><path class="cls-1" d="M9.11 0v24.55C22 20.29 29.62 22 35.1 30.19c4.75 7.1 4 17.74-1.61 24-6.33 7-14.71 8.08-24.32 3.22C7.08 61.5 3.5 59.27 0 59.75V0zm-.9 41.15c0 6.71 4.32 11.34 10.54 11.31s10.77-4.74 10.65-11.27c-.12-6.77-4.61-11.64-10.57-11.46-6.19.18-10.62 4.95-10.62 11.42zM160.9 0q.06 29.17.11 58.35a6.11 6.11 0 0 1-.38 1.35c-2.92-.29-6.35 1.86-8.47-2.16-11.5 4.56-19.26 3.36-25.09-3.91-5.18-6.45-5.68-16.74-1.15-23.4 5.54-8.14 12.89-9.78 25.87-5.73V0zm-18.73 52.46a10.81 10.81 0 0 0 10.88-11.13c0-6.51-4.79-11.56-11-11.61-6 0-10.37 4.61-10.4 11.07.01 7.21 3.97 11.6 10.52 11.67zM264 21.24c3.8.87 7.66-1.81 9.44 2.82 8.6-4 16.1-2.47 20.94 4.05 3.91 5.28 5.52 14.37-2.67 22.08 4.28 3.58 7 8.14 5.59 13.76a16.22 16.22 0 0 1-4.76 7.83c-6.61 5.72-18.57 4.83-24.2-1.27-4.14-4.47-5.86-13.45 2.35-20.39-9.64-7.71-4.97-18.55-6.69-28.88zm25.12 16.88a8.69 8.69 0 0 0-8.45-8.53 8.59 8.59 0 0 0-8.26 8.28 8.58 8.58 0 0 0 8.48 8.45 8.27 8.27 0 0 0 8.2-8.2zm-8 29.85c4.65 0 8.12-2.89 8-6.73s-3.52-6.58-7.86-6.62c-4.5 0-8 3-8 6.83-.02 3.69 3.36 6.55 7.79 6.55zM188.32 22.29h8.09v22.85c0 3.72 2.49 6.38 5.6 6.36 2.91 0 5.34-2.55 5.69-6 .1-1 .06-2 .06-3V26.2c0-1.23.13-2.46.21-3.88h8c0 9.22 1 18.41-.27 27.26-1.56 10.7-13.27 14.06-23.38 7.49-4.14 2.88-8.62 4.33-13.8 2.87-5.76-1.63-9.49-5.37-9.84-11.14-.53-8.66-.14-17.38-.14-26.38h8.32V30c0 4.93-.07 9.86 0 14.78.09 3.89 2.67 6.73 5.8 6.69s5.57-2.81 5.59-6.77c.09-7.39.07-14.81.07-22.41zM257.14 59.12c-3.46-.76-7.38 2.05-9.44-3-4.19 3.22-8.79 4.87-14.13 3.83-5.92-1.16-10-5.44-10.33-10.94S226.1 39 232 37.36c3.88-1 8-1.26 11.88-2.26 1.39-.36 2.46-2 3.68-3-1.3-1.12-2.46-2.92-3.94-3.24-4.63-1-8.39.45-11.71 4.29-1.44 1.67-4.95 1.54-7.83 2.32C225 27.23 230 22.06 237 21.3a36.09 36.09 0 0 1 4.16-.19c11.74.1 16 4.37 16 16.07zm-8.24-17c-4.77.79-9.12 1.4-13.42 2.27-2.35.47-4.52 1.69-3.91 4.59.57 2.68 2.92 3.33 5.33 3.22 5.3-.29 9.98-4.15 12-10.11zM77.34 59.09c-3.34-.58-7.16 1.91-9.13-2.94C64.12 59.23 59.73 61 54.53 60c-6.23-1.14-10.19-5-10.59-10.57-.45-6.17 2.51-10.46 8.94-12.18 3.75-1 7.72-1.18 11.49-2.15 1.45-.37 2.61-1.9 3.9-2.89-1.3-1.16-2.46-3-3.94-3.33-4.75-1-8.68.26-12 4.41-1.27 1.6-4.76 1.42-7.4 2.09 0-7 3.91-12.64 10.49-13.59 4.93-.71 10.26 0 15.19 1.06 4.09.9 6.5 4.58 6.63 8.79.28 8.97.1 17.93.1 27.45zm-7.7-17c-5 .79-9.32 1.37-13.61 2.21-2.36.46-4.46 1.67-3.9 4.6s3 3.48 5.27 3.2c5.67-.67 9.77-3.64 12.24-9.98zM302.87 41a19.51 19.51 0 0 1 39 .07c0 10.58-9.1 19.64-19.61 19.58A19.71 19.71 0 0 1 302.87 41zm8.85 0c0 7 4.27 11.56 10.7 11.45 6.19-.1 10.73-4.94 10.64-11.34-.1-6.77-4.7-11.63-10.91-11.51s-10.48 4.69-10.43 11.4zM108.51 59.49c0-7.34.08-14.51 0-21.68-.09-6.17-3.63-8.92-9.37-7.51-3.52.87-5.74 4-5.79 8.3-.08 6.69-.07 13.38-.12 20.07 0 .22-.18.44-.37.89h-8.27V22.92c3.21.1 6.65-1.87 9.06 1.9 12.34-7.19 23.76-.67 23.85 13.59v21.08zM347.72 59.53v-37c3.16.44 6.59-1.83 8.43 1.74 3-.91 5.84-2.31 8.73-2.51 8.5-.59 14.47 4.89 15.2 13.42.12 1.39.08 2.78.08 4.18v20h-8.88V45.18v-8c-.12-5-2.25-7.4-6.57-7.61a7.73 7.73 0 0 0-8.2 7.61c-.19 5.81-.08 11.63-.09 17.45 0 5.06 0 5.06-5.2 5-1.01.04-2.01-.03-3.5-.1z"/></svg>