<svg id="Layer_1" data-name="Layer 1" xmlns="http://www.w3.org/2000/svg" viewBox="0 0 555.94 74.32"><defs><style>.cls-1{fill:#fff}</style></defs><title>press-logos</title><path class="cls-1" d="M325 4.58h29.8c-.24.43-.32.8-.5.85-5.18 1.47-5.89 2.66-4.49 8.1q4.38 17.12 8.87 34.22a62.3 62.3 0 0 0 3.24 10c.61-1.76 1.27-3.5 1.84-5.28 2.25-7.09 4.53-14.17 6.67-21.29a9.88 9.88 0 0 0 .34-4.51c-.78-4.07-1.85-8.09-2.82-12.13-1.08-4.47-2.55-8.63-8.29-9.16l.32-.7h29.67l.07.62c-.77.12-1.55.23-2.32.36-3.73.68-5 2.37-4.17 6.14 2.2 9.7 4.55 19.36 6.85 29 1.3 5.44 2.63 10.87 4 16.7.51-.68 1-1 1.07-1.47q4.92-19.53 9.73-39.07a25.82 25.82 0 0 0 .34-4.33c.22-3.15-1.4-5.1-4.16-6.27a6.41 6.41 0 0 1-2.74-1.75h20.28a13.45 13.45 0 0 1-2.15 1.27 11 11 0 0 0-7.63 7.73c-2.57 8.8-5 17.64-7.36 26.5q-4.2 15.81-8.14 31.7c-.46 1.87-1.22 2.45-3.11 2.44-6.4 0-6.42 0-8.16-6.18-2.94-10.51-5.84-21-8.77-31.54-.22-.82-.52-1.62-1.06-3.26-1.68 5.2-3.12 9.62-4.51 14.06-2.52 8-5.08 16-7.44 24.08-.62 2.12-1.51 2.91-3.78 2.86-6.13-.15-6.1 0-7.69-5.93-4.76-17.61-9.63-35.2-14.28-52.84-1.34-5.11-3.3-9.3-9.17-10.18-.1.04-.16-.26-.35-.74zM35.74 36.65c4.08 1.2 7.53 1.86 10.69 3.22C52.58 42.51 56 47.33 56 54.13c-.06 7.28-3.2 13-10 16a29.06 29.06 0 0 1-10.55 2.8c-11.68.35-23.37.13-35.45-.4a6 6 0 0 1 .81-.21c6.19-.87 7.09-1.9 7.1-8.22V15.89c0-8.22 0-8.22-7.15-11.51 12.82.33 25.67.3 38.46 1.15 6.15.4 11.6 3.38 13.89 9.84 3.11 8.8-2.22 17.23-12.47 20zM23 71.74c2.46 0 4.57.08 6.69 0 5.92-.25 9.44-3.1 10.26-9a54 54 0 0 0 .49-12.7c-.86-9-6-14.06-17.44-11.91zm-.14-35.52h5.21c5.7-.08 9.14-2.61 10.23-8.2a44.91 44.91 0 0 0 .56-9.77c-.24-9.12-4.35-12.8-13.53-12.6-1.87 0-2.53.58-2.5 2.49.1 5.8 0 11.6 0 17.4zM536.66 28.29V7.83c0-2.06-1.34-3.14-3.31-3.38s-3.07-1.07-2.08-3.59L550.83 0v65.57c0 5.62 0 5.62 5.11 7.76h-18.57c-.13-1.34-.28-2.89-.43-4.46-2.59 1.62-4.84 3.57-7.45 4.54-6.53 2.43-13.6-.34-17.38-6.36-5.45-8.69-4.91-24.59 1.11-32.9a18.26 18.26 0 0 1 21.38-6.59zm.07 20.93c0-5 .15-10.07-.1-15.08a6.23 6.23 0 0 0-2.12-4.05c-3.62-2.9-7.66-1.38-9.34 3.7-2.93 8.81-3 17.85-1.15 26.88a17.57 17.57 0 0 0 2.73 6.27 5.26 5.26 0 0 0 6.43 2c2.62-.92 3.73-2.61 3.6-5.49-.2-4.74-.05-9.45-.05-14.23zM219.42 73.06h-21.56c3-.89 3.33-3.15 3.3-5.86-.11-9.3 0-18.6 0-27.89 0-4.18-1.62-6.26-4.78-6.29s-7.11 3.38-7.13 6.44c-.07 9.78-.14 19.56.09 29.34 0 1.49 1.64 2.94 2.4 4.22h-20.39c1.18-.76 3.08-1.34 3.73-2.58s.42-3.38.43-5.1V35.12c0-4.83-.15-5-4.5-7.22h18.09v8.29c1.5-1.61 2.24-2.77 3.29-3.47 2.75-1.87 5.43-4.2 8.52-5.16 7.9-2.49 13.72 2.14 13.82 10.63.11 9.2 0 18.4 0 27.6.03 5.31.02 5.31 4.69 7.27zM56.8 27.39H73c.57 0 1.14.09 2.16.18v33c0 4.71 1.69 7 5.08 7 3.62 0 6.84-3.51 6.85-7.5V34.52c0-4.63-.5-5.29-4.82-6.81h18.47v38.66c0 4.76.2 5 5.4 6.55h-18.5l-.35-7.57-.59-.3c-.59.75-1.19 1.5-1.78 2.26-4 5.09-9 7.61-15.49 6.12-5.1-1.18-7.81-5.5-7.85-12.1-.06-8.91 0-17.82 0-26.73-.02-4.87-.33-5.29-4.78-7.21zM425.89 74.25c-11.61 0-20.06-7.85-21.32-19.48-.67-6.21-.18-12.18 2.81-17.72 4.55-8.4 13.35-12.07 23.83-10.13a19.72 19.72 0 0 1 16 17.61 44.06 44.06 0 0 1-.53 13.47c-2.22 10.25-10.33 16.28-20.79 16.25zm7.53-23.74h-.43a45.8 45.8 0 0 0 0-6.09 127.72 127.72 0 0 0-2.25-12.77c-.57-2.35-2.56-3.46-5.13-3.4s-3.85 1.56-4.67 3.66a10.73 10.73 0 0 0-.88 3.34c-.33 7.33-.8 14.67-.7 22a51.41 51.41 0 0 0 1.85 11.35 4.81 4.81 0 0 0 5.15 3.82c2.84 0 4.08-1.84 5-4.08a9.62 9.62 0 0 0 .64-2.52c.47-5.12.94-10.22 1.42-15.31z"/><path class="cls-1" d="M483.71 3.66L484 .17c5.9 0 11.69-.05 17.47.09.66 0 1.53 1 1.86 1.78a6.68 6.68 0 0 1 .1 2.58v61c0 5.63 0 5.63 5.87 7.36h-24.52l-.09-.41c.66-.11 1.33-.2 2-.35 1.81-.39 2.88-1.32 2.88-3.37V8.13c-.04-3.66-3.11-3.63-5.86-4.47zM259.45 62.35c-3.2 6.14-7.84 10.61-15.11 11.35-17.18 1.74-24.67-10.7-23.91-24.7.32-6 2.1-11.59 6.38-16.14 5.56-5.91 15.22-7.92 22.48-4.57 6.59 3.05 11.16 11.59 10.49 19.31-.16 1.93-1.32 1.79-2.6 1.79-6.59 0-13.18.09-19.77-.05-2.34 0-3.29.76-2.87 3 .67 3.58.87 7.38 2.25 10.68 3.68 8.79 13.66 9.86 19.61 2.37.88-1.11 1.65-2.31 2.47-3.47zM246.9 41.5c-.57-3.29-.77-6.72-1.86-9.84-.54-1.56-2.7-3.55-4.13-3.55s-3.66 2-4.18 3.52a41.5 41.5 0 0 0-2.09 11c-.31 6.43-.91 5.54 5.33 5.6 6.51.03 6.51-.01 6.93-6.73z"/><path class="cls-1" d="M446.82 27.6h19.11v7.6a66.86 66.86 0 0 1 4.34-5.28c3.11-3 6.77-4.48 11.12-3 3.85 1.32 5.84 5.64 4.72 10-1 4.06-4.18 6.14-8.26 5.46a7 7 0 0 1-5.64-7.91c.08-.74.25-1.48.39-2.29-3.38.73-6.57 4.71-6.58 8.09v26.14c0 4.61.71 5.38 5.23 5.83a2.41 2.41 0 0 1 1.77.86H447l-.05-.56c.6-.11 1.19-.22 1.79-.31 2.06-.23 3.26-1.38 3.26-3.6V33.48c0-3.47-2.1-4.68-5.44-4.66zM328.12 29.72l3.37-3.09v14.94l-.57.22c-1-1.56-2-3.17-3.1-4.68a71 71 0 0 0-5.33-6.83c-2.13-2.26-4.89-3.2-7.94-1.93-2.46 1-3.59 3-3.86 5.67-.34 3.25.75 5.76 3.72 7.19 3.48 1.67 7 3.14 10.57 4.74 4.14 1.88 7.9 4.16 9 9.06 2.1 9-4.46 18.2-13.86 18.58a39.8 39.8 0 0 1-12.41-2c-2.33-.68-3.92-1.17-5.33 1.17-.26.43-.87.66-1.65 1.22V57.39l.56-.33c.56.77 1.11 1.55 1.68 2.31 2.53 3.4 4.92 6.92 7.68 10.13a11.1 11.1 0 0 0 4.64 2.78c3.62 1.27 6.77.08 8.27-2.77 1.68-3.2 1-7.73-1.82-9.73a48.57 48.57 0 0 0-7.07-3.78c-2.35-1.14-4.83-2-7.14-3.2-5.07-2.61-7.55-6.75-7-12.54s3.37-9.81 8.64-12.08c5.53-2.41 11.59-1.86 18.95 1.54zM263.65 74.08V57.27l.62-.22c.56.83 1.1 1.68 1.7 2.48 2.54 3.4 5 6.9 7.73 10.11a10.69 10.69 0 0 0 4.41 2.6c3.61 1.31 6.79.19 8.32-2.63 1.68-3.11 1.05-7.88-1.66-9.78a55.5 55.5 0 0 0-7.38-4c-2.25-1.1-4.63-1.94-6.87-3.07-5-2.51-7.61-6.53-7.14-12.19.49-6 3.36-10.44 9.14-12.62A20.76 20.76 0 0 1 287 28c3.94 1.37 3.92 1.43 7.35-1.08V41.5l-.53.26c-1-1.46-1.89-3-2.94-4.35-1.88-2.54-3.64-5.29-5.88-7.41-3.26-3.11-7.75-2.77-10 .27A7.27 7.27 0 0 0 277 41a67.16 67.16 0 0 0 7.07 3.33c1.41.63 2.88 1.13 4.28 1.78 5.5 2.51 9.28 6.21 9 12.84a15.4 15.4 0 0 1-10 13.68c-5.59 2.16-11.09 1.41-16.36-.89-2.47-1.09-4.24-1.36-5.77 1.16-.28.39-.78.59-1.57 1.18zM108.66 74.05V56.72c1 1.26 1.65 2 2.19 2.72 2 2.85 3.74 5.92 6 8.5a17.38 17.38 0 0 0 6 4.26c3.52 1.48 6.85.23 8.36-2.51 1.94-3.54 1.25-7.95-1.92-10.16a43.21 43.21 0 0 0-6.4-3.35c-2.53-1.2-5.14-2.22-7.66-3.45-4.7-2.3-7.19-6.1-7-11.37.2-5.73 2.52-10.33 7.93-12.83a19.2 19.2 0 0 1 16.83 0c2.26 1.06 3.67 1 5.08-1 .23-.33.73-.48 1.4-.89v15.8c-1.12-1.38-1.78-2.08-2.32-2.86-1.77-2.54-3.36-5.22-5.27-7.64-2.24-2.84-5-5-9-3.84-2.71.77-4.44 3.21-4.65 6.37-.28 4.08 2.35 6.13 5.58 7.61 3 1.38 6.06 2.53 9.06 3.88 7.49 3.36 10.37 8.26 9 15.25-1.27 6.64-7.35 12.3-14.27 12.35a42.12 42.12 0 0 1-12.14-2c-2.3-.69-3.91-1.16-5.35 1.09a9.92 9.92 0 0 1-1.45 1.4zM167.09 73H143.8l-.06-.28c.69-.17 1.38-.38 2.09-.51a3.14 3.14 0 0 0 2.92-3.37V33.11c0-3.31-2.34-4.26-5-5.32h18.64v38.54c.03 4.9.03 4.9 4.7 6.67zM163 11.75c0 4.74-3.14 7.93-7.72 7.91a7.4 7.4 0 0 1-7.66-8 8 8 0 0 1 7.79-8c4.51.03 7.59 3.34 7.59 8.09z"/></svg>