<svg id="Layer_1" data-name="Layer 1" xmlns="http://www.w3.org/2000/svg" viewBox="0 0 353.64 80.6"><defs><style>.cls-1{fill:#fff}</style></defs><title>press-logos</title><path class="cls-1" d="M141.23 8.81c-1.67-2.15-3.26-3.95-4.58-5.94S133.62.24 131 .66C111.6 3.83 96.19 13.4 84.57 29.24a1.86 1.86 0 0 0 0 2.45C89.3 39.74 94 47.84 98.72 55.9a6.39 6.39 0 0 0 1.54 1.81 51.66 51.66 0 0 0 39.35 10.6c1.45-.18 1.67-.74 1.67-2v-35.8c0-.42 0-.84-.06-1.36h-12.77c1 2.09 1.94 4 2.71 5.9a12.54 12.54 0 0 1 1.16 4.24c.13 6.34.06 12.68.05 19 0 .54-.07 1.07-.11 1.63a6.78 6.78 0 0 1-.87.08 43 43 0 0 1-24.15-8.13 4.32 4.32 0 0 1-1.24-1.3c-3.7-6.59-7.37-13.21-11.18-20 11.98-13.93 27.33-21.22 46.41-21.76zM46.62 0a14 14 0 0 0 1.13 1.39 209.86 209.86 0 0 1 43.67 59.46c.22.44.44.89.64 1.34 0 .09 0 .22-.07.53a53.65 53.65 0 0 0-17-4.63l13.83 8.16A65.81 65.81 0 0 1 60.13 80.6c2.75-4.27 4.21-8.57 3.38-13.46a17.1 17.1 0 0 0-7.2-11.51 17.6 17.6 0 0 0-21.15.68 17.34 17.34 0 0 0-5.28 7.1 14.64 14.64 0 0 0-1 8.76 75.51 75.51 0 0 0 2.8 8.29 65.13 65.13 0 0 1-28.16-14.2l13.85-8.19A50.28 50.28 0 0 0 0 63v-.75a13.16 13.16 0 0 0 1-1.48A209 209 0 0 1 39.65 6.36L45.88 0zM167.85 0c3.13 4 6.32 8 9.38 12A231.38 231.38 0 0 1 198 45.07c.36.7.74 1.4 1.25 2.36A237.35 237.35 0 0 1 230.82.12c.06.94.12 1.47.12 2v25a4.82 4.82 0 0 1-.61 2.43c-2.39 3.85-4.87 7.64-7.33 11.45-.16.24-.36.46-.88 1.12V26.87l-.7-.25c-4 6.88-8.26 13.64-12 20.67s-6.86 14.24-10.32 21.52a221.07 221.07 0 0 0-22.64-42.64v42.66h-9V0zM267.44 0c4.77 5 9.71 9.79 14.29 14.93a205.92 205.92 0 0 1 31.15 46.63c.48 1 .57 1.64-.37 2.4-1.92 1.57-3.75 3.25-5.89 5.12a202.64 202.64 0 0 0-39.35-56.77 201.67 201.67 0 0 0-39.36 56.79c-2.27-2-4.38-3.79-6.37-5.71-.28-.27-.11-1.27.14-1.79A209.46 209.46 0 0 1 266.21 1c.31-.29.57-.64.85-1zM348 0l5.64 8.74h-41.19v32.9l-.38.08a74.75 74.75 0 0 0-4.68-7.25 17.11 17.11 0 0 1-3.86-12.88c.36-4.13.08-8.31.08-12.67-.84 0-1.55-.1-2.27-.1-4 0-7.95 0-11.93-.06a3.81 3.81 0 0 1-2.36-1c-2.5-2.51-4.88-5.14-7.31-7.72zM158.9 0v68.85h-9v-2.1V9.38a7.77 7.77 0 0 0-1.76-5.46c-1-1.21-1.85-2.61-2.76-3.92z"/><path class="cls-1" d="M141.23 8.81c-19.08.54-34.43 7.83-46.44 21.72 3.81 6.83 7.48 13.45 11.18 20a4.32 4.32 0 0 0 1.27 1.32A43 43 0 0 0 131.39 60a6.78 6.78 0 0 0 .87-.08c0-.56.11-1.09.11-1.63 0-6.34.08-12.68-.05-19a12.54 12.54 0 0 0-1.16-4.24c-.77-1.94-1.74-3.81-2.71-5.9h12.81c0 .52.06.94.06 1.36 0 11.94-.06 23.87 0 35.8 0 1.26-.22 1.82-1.67 2a51.66 51.66 0 0 1-39.35-10.6 6.39 6.39 0 0 1-1.54-1.81C94 47.84 89.3 39.74 84.55 31.69a1.86 1.86 0 0 1 0-2.45C96.19 13.4 111.6 3.83 131 .66c2.58-.42 4.19.08 5.61 2.21s2.95 3.79 4.62 5.94z"/></svg>