<svg id="Layer_1" data-name="Layer 1" xmlns="http://www.w3.org/2000/svg" viewBox="0 0 204.75 42.47"><defs><style>.cls-1{fill:#fff;}</style></defs><title>nusasonic-logo</title><path class="cls-1" d="M94.46,42.27l-3.12,0-3.07,0h0a.36.36,0,0,1-.21,0s0,0,0-.26c0-7.26,0-15.09,0-24.64a3.9,3.9,0,0,0-3.07-3.8,3.27,3.27,0,0,0-.76-.08,3.74,3.74,0,0,0-3.69,3.13c-.07.44-.09.87-.12,1.32s0,.64-.06.94a10.12,10.12,0,0,1-1.62,4.51,11.6,11.6,0,0,0-1.87,6.3,5.55,5.55,0,0,0,5.56,5.85h3.18c.14,0,.17,0,.17,0s0,0,0,.19c0,1.38,0,2.78,0,4.14,0,.75,0,1.49,0,2.23,0,0,0,0,0,.08v.08H83a16.84,16.84,0,0,1-2.74-.18,11.62,11.62,0,0,1-7.41-4.4A12.08,12.08,0,0,1,71,25.14a7.94,7.94,0,0,1,.78-1.43c.17-.28.34-.55.49-.83a11.1,11.1,0,0,0,1.35-5v-.07a12.07,12.07,0,0,1,.72-4.42C76,9.53,78.76,7.3,82.46,6.77a11.46,11.46,0,0,1,1.65-.13,10.66,10.66,0,0,1,10.45,8.48,11.83,11.83,0,0,1,.22,2.52V32c0,3.25,0,6.62,0,9.94a.57.57,0,0,1-.05.31.49.49,0,0,1-.25,0Z"/><path class="cls-1" d="M38.91,42.27a12.81,12.81,0,0,1-1.62-.1,11.81,11.81,0,0,1-9.88-7.25A11.4,11.4,0,0,1,28,23.78,12.63,12.63,0,0,0,30,16.92c0-1.37,0-2.73,0-4.09,0-1.91,0-3.89,0-5.83A.48.48,0,0,1,30,6.72s.06,0,.26,0h6.24c.18,0,.22,0,.23,0a.41.41,0,0,1,0,.21l0,4.78v.59l0,5.24a10.81,10.81,0,0,1-1.78,5.93,11.44,11.44,0,0,0-1.8,6.43A5.64,5.64,0,0,0,38,35.48l.64,0a5.66,5.66,0,0,0,5.56-4.63,6.43,6.43,0,0,0,.12-1.42V7.1a2,2,0,0,1,0-.39,1.93,1.93,0,0,1,.34,0h6.14c.18,0,.24,0,.25,0s.05.07.05.26c0,2.81,0,5.62,0,8.75V29.5a12.46,12.46,0,0,1-4.91,10.2,11.46,11.46,0,0,1-7.34,2.57"/><path class="cls-1" d="M21,42.27l-3.07,0-3.17,0c-.2,0-.23,0-.24,0s0,0,0-.22c0-1.95,0-3.93,0-5.84V31.85a11.37,11.37,0,0,1,1.83-6.29A11.24,11.24,0,0,0,18,18.1a5.51,5.51,0,0,0-4.38-4.56,6.34,6.34,0,0,0-1.06-.1,5.56,5.56,0,0,0-4,1.66,6.11,6.11,0,0,0-1.78,4.21c0,5.4,0,10.89,0,16.2v6.56a.6.6,0,0,1,0,.19H3l-2.7,0h0c-.18,0-.25,0-.27-.05s0-.09,0-.29c0-2.9,0-5.86,0-8.72V26.76c0-2.42,0-4.92,0-7.39A12.38,12.38,0,0,1,6.52,8.25a11.79,11.79,0,0,1,6-1.61,12.12,12.12,0,0,1,9.21,4.19c3.23,3.76,4,8.12,2.21,13a8.18,8.18,0,0,1-.85,1.6c-.2.32-.41.65-.59,1a10.51,10.51,0,0,0-1.23,4.84c0,3.58,0,7.13,0,10.75,0,.21,0,.25,0,.25s-.05,0-.23,0Z"/><path class="cls-1" d="M54.25,42.27h-1.5V35.46h.53l.58,0a4.53,4.53,0,0,0,.52,0,5.53,5.53,0,0,0,4.17-1.92,5.82,5.82,0,0,0,1.35-4.72c-.28-2-.74-4-1.2-5.94l-.08-.35a12.62,12.62,0,0,1,0-7.16A12.35,12.35,0,0,1,68,6.9a11.44,11.44,0,0,1,2.17-.24h0c.09,0,.12,0,.12,0s0,0,0,.17c0,.78,0,1.57,0,2.33V10.9c0,.76,0,1.55,0,2.32a.36.36,0,0,1,0,.19.46.46,0,0,1-.21,0,5.4,5.4,0,0,0-3.76,1.83,5.59,5.59,0,0,0-1.44,4,29.06,29.06,0,0,0,.83,4.79c.11.44.21.87.31,1.31a19.58,19.58,0,0,1,.65,5.45A12.36,12.36,0,0,1,56.31,42.14a14.29,14.29,0,0,1-2.06.13"/><path class="cls-1" d="M128,42.27a12.27,12.27,0,0,1-11.66-8.65,11.49,11.49,0,0,1,1.21-10,12.43,12.43,0,0,0,1.85-6.83,10.31,10.31,0,0,1,4.14-8,9.23,9.23,0,0,1,5.87-2.16h.07a10.78,10.78,0,0,1,10.64,7.63,10.23,10.23,0,0,1,.41,3.34c0,1.47,0,3,0,4.33v1.71s0,.06,0,.1c0,.55,0,1.11,0,1.67v.24c0,1.45,0,3,0,4.46A12.26,12.26,0,0,1,130.76,42a13.57,13.57,0,0,1-2.81.3m1.9-28.85a3.54,3.54,0,0,0-1.57.36,3.78,3.78,0,0,0-2.21,3.62,11.17,11.17,0,0,1-1.84,6.14,11.28,11.28,0,0,0-1.75,6.06,5.77,5.77,0,0,0,1.61,4.23,5.48,5.48,0,0,0,4,1.66,6.51,6.51,0,0,0,1.51-.19,5.54,5.54,0,0,0,4.09-5.18c0-2.58,0-5.2,0-7.74V17.85a2.4,2.4,0,0,1,0-.37,3.51,3.51,0,0,0,0-.56,3.93,3.93,0,0,0-3.88-3.5"/><path class="cls-1" d="M164.76,42.25h-6.27a.59.59,0,0,1-.19,0,.44.44,0,0,1,0-.17c0-1.3,0-2.6,0-3.91,0-2.37,0-4.81.05-7.2a9.06,9.06,0,0,1,1.54-5,12.45,12.45,0,0,0,2-6.74,5.58,5.58,0,0,0-5.56-5.82,5.7,5.7,0,0,0-5,3.08,6.2,6.2,0,0,0-.71,2.94q0,11.19,0,22.38V42a2,2,0,0,1,0,.26H144.1a.41.41,0,0,1-.21,0s0,0,0-.23c0-3.19,0-6.42,0-9.55V19.38a12.34,12.34,0,0,1,3.25-8.52,12.31,12.31,0,0,1,21.45,9.84,11.26,11.26,0,0,1-1.77,4.83,10.45,10.45,0,0,0-1.72,5.74c0,3.7,0,7.47,0,10.66,0,.2,0,.26,0,.28s-.05,0-.23,0Z"/><path class="cls-1" d="M197,42.47h-1.43a12.4,12.4,0,0,1-12-10.61,11.5,11.5,0,0,1,1.7-8.19,11.73,11.73,0,0,0,1.76-6.56A10.32,10.32,0,0,1,191.21,9a10.09,10.09,0,0,1,6.49-2.22l2.2,0,4.24,0h.1a.55.55,0,0,1,.4.1.55.55,0,0,1,.11.41c0,1.94,0,4,0,6.2,0,.19,0,.3-.09.36a.43.43,0,0,1-.34.1L201,14h-3.17a3.51,3.51,0,0,0-3.74,3.61,12.29,12.29,0,0,1-.94,4.6,10.93,10.93,0,0,1-.76,1.39v0c-.14.23-.28.46-.4.69a10.38,10.38,0,0,0-1.33,6.76,5.13,5.13,0,0,0,4.82,4.25c1,0,2,0,3.43,0h5.46a.39.39,0,0,1,.27.08.46.46,0,0,1,.08.3c0,2.18,0,4.31,0,6.34a.44.44,0,0,1-.08.29.4.4,0,0,1-.3.08H197"/><path class="cls-1" d="M99.72,42.24H98.53a.31.31,0,0,1,0-.09v-6.6a.25.25,0,0,1,0-.1H99a6.12,6.12,0,0,1,.62,0l.52,0a5.52,5.52,0,0,0,4.15-1.92,5.9,5.9,0,0,0,1.35-4.75,57.85,57.85,0,0,0-1.17-5.75,13.56,13.56,0,0,1-.16-7.48,12.38,12.38,0,0,1,11.4-9h.35a1.83,1.83,0,0,1,0,.34v4c0,.73,0,1.49,0,2.24a.38.38,0,0,1,0,.18.38.38,0,0,1-.18,0,5.53,5.53,0,0,0-5.23,5.86,26,26,0,0,0,.79,4.61l0,.11.21.88.07.31a20.08,20.08,0,0,1,.7,5.41,12,12,0,0,1-4.17,8.55,11.83,11.83,0,0,1-8.09,3.08Z"/><path class="cls-1" d="M171.32,42.25a.52.52,0,0,1-.21,0,.51.51,0,0,1,0-.24c0-1,0-2,0-3.23v-1.7a40.94,40.94,0,0,1,.4-6.92,37.15,37.15,0,0,1,1.42-5.68c.22-.67.41-1.24.61-1.81a15.68,15.68,0,0,0,1.19-6.87c0-.88,0-1.78,0-2.65v-.07c0-.92,0-1.87,0-2.82,0-.2,0-.26.05-.28s.06,0,.26,0h6.18c.18,0,.22,0,.23,0s0,.05,0,.23c0,1,0,2,0,3v.05c0,1.64,0,3.33,0,5a8,8,0,0,1-.85,3.89,22.93,22.93,0,0,0-.9,2.29,35.18,35.18,0,0,0-1.82,11.45c0,1,0,2,0,3.05V39c0,1,0,2,0,3,0,.16,0,.2,0,.2s0,0-.2,0h-6.31Z"/><path class="cls-1" d="M178,7.2a3.6,3.6,0,1,1,3.6-3.6A3.6,3.6,0,0,1,178,7.2"/></svg>