<svg id="Layer_1" data-name="Layer 1" xmlns="http://www.w3.org/2000/svg" viewBox="0 0 61.76 36.05"><defs><style>.cls-1{fill:#fff}</style></defs><title>partner-logos</title><path class="cls-1" d="M4.32 22.54h3.76a12 12 0 0 1 1.33.09 3.64 3.64 0 0 1 1.18.38 2.13 2.13 0 0 1 .86.77 2.43 2.43 0 0 1 .33 1.32 2.09 2.09 0 0 1-.48 1.42 2.65 2.65 0 0 1-1.26.81 3 3 0 0 1 .9.28 2.46 2.46 0 0 1 .71.52 2.79 2.79 0 0 1 .44.75 2.53 2.53 0 0 1 .16.91 2.45 2.45 0 0 1-.34 1.33A2.74 2.74 0 0 1 11 32a4.36 4.36 0 0 1-1.22.47 6.19 6.19 0 0 1-1.35.14H4.32zm2.22 4h1.62a2.07 2.07 0 0 0 .5-.05 1.44 1.44 0 0 0 .46-.19 1 1 0 0 0 .31-.3.92.92 0 0 0 .12-.51 1 1 0 0 0-.13-.49 1 1 0 0 0-.35-.31 1.58 1.58 0 0 0-.49-.17 3 3 0 0 0-.52 0H6.54zm0 4.18h2a3.05 3.05 0 0 0 .52-.05 1.67 1.67 0 0 0 .47-.2 1.19 1.19 0 0 0 .36-.38 1 1 0 0 0 .13-.55.85.85 0 0 0-.17-.54 1 1 0 0 0-.46-.33 2.06 2.06 0 0 0-.58-.16 4 4 0 0 0-.58-.05H6.54zM12.6 21.86h2.14v10.77H12.6zM19.63 31.76a2 2 0 0 1-1 .8 3.08 3.08 0 0 1-1.24.24 3.28 3.28 0 0 1-.94-.13 2.58 2.58 0 0 1-.79-.41 2 2 0 0 1-.54-.67 2 2 0 0 1-.2-.92 2.11 2.11 0 0 1 .22-1 2.06 2.06 0 0 1 .6-.68 2.93 2.93 0 0 1 .87-.42 4.68 4.68 0 0 1 1-.22 8.93 8.93 0 0 1 1-.09h1a1.14 1.14 0 0 0-.41-.91 1.42 1.42 0 0 0-1-.33 2.05 2.05 0 0 0-1 .22 2.67 2.67 0 0 0-.78.61l-1.13-1.18a3.9 3.9 0 0 1 1.39-.83 5.1 5.1 0 0 1 1.65-.27 4.29 4.29 0 0 1 1.55.23 2.24 2.24 0 0 1 1 .69 2.56 2.56 0 0 1 .5 1.12 7 7 0 0 1 .15 1.53v3.52h-2zm-.53-2.16h-.6a2.7 2.7 0 0 0-.7.12 1.3 1.3 0 0 0-.57.3.66.66 0 0 0-.24.55.63.63 0 0 0 .33.58 1.51 1.51 0 0 0 .69.18 2.08 2.08 0 0 0 .6-.09 1.77 1.77 0 0 0 .52-.24 1.16 1.16 0 0 0 .5-1v-.4zM26.62 27.94a1.15 1.15 0 0 0-.43-.38 1.45 1.45 0 0 0-.62-.15 1.65 1.65 0 0 0-1.26.49 1.77 1.77 0 0 0-.45 1.26 1.82 1.82 0 0 0 .45 1.28 1.64 1.64 0 0 0 1.26.48 1.15 1.15 0 0 0 .62-.16 1.39 1.39 0 0 0 .43-.37L28 31.88a2.77 2.77 0 0 1-1.18.72 4.66 4.66 0 0 1-1.29.2 4.43 4.43 0 0 1-1.51-.25 3.76 3.76 0 0 1-1.22-.74 3.44 3.44 0 0 1-.8-1.14 3.67 3.67 0 0 1-.3-1.51 3.55 3.55 0 0 1 1.11-2.64 3.74 3.74 0 0 1 1.22-.73 4.43 4.43 0 0 1 1.51-.25 4.66 4.66 0 0 1 1.29.2 2.77 2.77 0 0 1 1.18.72zM28.66 21.85h2.14v6.59l2.36-2.73h2.63l-2.76 3.12 2.83 3.8h-2.7l-2.33-3.51h-.03v3.51h-2.14V21.85zM35.95 22.54h2.22v4.19l3.92-4.19h2.9l-4.48 4.69 4.87 5.4h-3.11l-4.1-4.79v4.79h-2.22V22.54z"/><path class="cls-1" d="M49.51 31.76a2 2 0 0 1-.94.8 3.16 3.16 0 0 1-1.25.24 3.28 3.28 0 0 1-.94-.13 2.52 2.52 0 0 1-.78-.41 1.89 1.89 0 0 1-.55-.67 2 2 0 0 1-.2-.92 2.23 2.23 0 0 1 .22-1 2.06 2.06 0 0 1 .6-.68 2.93 2.93 0 0 1 .87-.42 4.68 4.68 0 0 1 1-.22 9.12 9.12 0 0 1 1-.09h1a1.13 1.13 0 0 0-.4-.91 1.44 1.44 0 0 0-1-.33 2.07 2.07 0 0 0-1 .22 2.8 2.8 0 0 0-.78.61l-1.13-1.18a4 4 0 0 1 1.39-.83 5.2 5.2 0 0 1 1.66-.27 4.27 4.27 0 0 1 1.54.23 2.18 2.18 0 0 1 1 .69 2.45 2.45 0 0 1 .5 1.12 7 7 0 0 1 .15 1.53v3.52h-2zM49 29.6h-.6a2.7 2.7 0 0 0-.7.12 1.3 1.3 0 0 0-.57.3.69.69 0 0 0-.23.55.63.63 0 0 0 .33.58 1.47 1.47 0 0 0 .68.18 2.15 2.15 0 0 0 .61-.09A1.71 1.71 0 0 0 49 31a1.09 1.09 0 0 0 .37-.4 1.14 1.14 0 0 0 .13-.57v-.43z"/><path class="cls-1" d="M54.27 33.14a5 5 0 0 1-.13 1.21 2.32 2.32 0 0 1-.42.91 2 2 0 0 1-.8.59 3.27 3.27 0 0 1-1.22.2h-.49a2.1 2.1 0 0 1-.5-.09l.11-1.9a1.21 1.21 0 0 0 .56.13.53.53 0 0 0 .42-.19.79.79 0 0 0 .24-.35 2.23 2.23 0 0 0 .08-.45v-7.49h2.15zM52 23.53a1.24 1.24 0 0 1 2.12-.88 1.24 1.24 0 0 1-1.75 1.75 1.16 1.16 0 0 1-.37-.87M55 23.52a1.26 1.26 0 0 1 1.25-1.24 1.24 1.24 0 0 1 .87 2.12 1.19 1.19 0 0 1-.87.36 1.22 1.22 0 0 1-.88-.36 1.2 1.2 0 0 1-.37-.88m.18 2.19h2.14v6.92h-2.19zM0 .14h4.07c1.65 0 3.13 0 4 1.28a3.87 3.87 0 0 1 .57 2.07 3.65 3.65 0 0 1-.34 1.58C7.44 6.88 5.58 6.91 4.21 7H2.54v3.3H0zM2.54 2v3.07h1.51c1 0 2.09 0 2.09-1.59S4.87 2 4.14 2zM9.15.14h2.21v10.11H9.15zM12.3 4.9a2 2 0 0 1 .79-1.66 3.81 3.81 0 0 1 2.45-.67c.92 0 3.14.22 3.14 2.15v4.36c0 .81 0 .92.21 1.17h-2.16v-.68a3.53 3.53 0 0 1-2.3.88A2.25 2.25 0 0 1 12 8.18 2.43 2.43 0 0 1 13.56 6a19 19 0 0 1 3-.69v-.4c0-.35-.05-.91-.84-.91-1 0-1.11.6-1.17.87zm2.79 2.25c-.37.13-.95.36-.95.93a.8.8 0 0 0 .84.75 1.51 1.51 0 0 0 .76-.24c.73-.46.76-1.14.77-1.92zM25.86 2.78l-2.63 8.07a3.56 3.56 0 0 1-.71 1.36 1.9 1.9 0 0 1-1.59.61h-1.58v-1.75h.77c.36 0 .91 0 .91-.55a2.09 2.09 0 0 0-.1-.52L18.7 2.78h2.35l1.23 5.36 1.23-5.36zM27.34 2a2.13 2.13 0 0 1 .32-1.24A2.27 2.27 0 0 1 29.57 0a9.67 9.67 0 0 1 1.32.13v1.65h-.53c-.83 0-.88.17-.86 1.17H31V4.3h-1.49v6h-2.19v-6h-1.17V3h1.19zM33.45 3.55a3.43 3.43 0 0 1 2.16-.86v1.95l-.73.12c-1.05.18-1.38.34-1.38 1.24v4.21h-2.2V2.77h2.15zM43.26 8.35a6.09 6.09 0 0 1-.9 1.11 4.08 4.08 0 0 1-2.82 1.06 3.57 3.57 0 0 1-3.79-3.86c0-1.81.89-4.12 3.84-4.12a3.6 3.6 0 0 1 2.69 1.07A5 5 0 0 1 43.35 7H38a1.69 1.69 0 0 0 1.71 1.87 2 2 0 0 0 1.89-1.36zm-2.19-2.76a1.87 1.87 0 0 0-.41-1.07 1.6 1.6 0 0 0-1.08-.41 1.53 1.53 0 0 0-1.12.49 1.93 1.93 0 0 0-.44 1zM51.18 8.35a6.09 6.09 0 0 1-.9 1.11 4.09 4.09 0 0 1-2.83 1.06 3.57 3.57 0 0 1-3.78-3.86c0-1.81.89-4.12 3.84-4.12a3.63 3.63 0 0 1 2.69 1.07A5 5 0 0 1 51.27 7h-5.34a1.68 1.68 0 0 0 1.7 1.87 2 2 0 0 0 1.88-1.32zM49 5.59a1.87 1.87 0 0 0-.41-1.07 1.58 1.58 0 0 0-1.08-.41 1.51 1.51 0 0 0-1.12.49 2 2 0 0 0-.45 1zM51.82.14h2.21v10.11h-2.21zM61.76 2.78l-2.63 8.07a3.7 3.7 0 0 1-.71 1.36 1.89 1.89 0 0 1-1.59.61h-1.58v-1.75H56c.36 0 .91 0 .91-.55a1.72 1.72 0 0 0-.1-.52L54.6 2.78H57l1.23 5.36 1.23-5.36z"/></svg>