<svg id="Layer_1" data-name="Layer 1" xmlns="http://www.w3.org/2000/svg" viewBox="0 0 43.25 22.74"><defs><style>.cls-1{fill:#fff;fill-rule:evenodd}</style></defs><title>partner-logos</title><path class="cls-1" d="M4 11.07a1.85 1.85 0 0 1 1.85.66 6 6 0 0 1 .38 1.33c.7 2.65 1.42 5.25 2.13 8.07.12.48.29 1.08.05 1.36a1.11 1.11 0 0 1-1.14.16c-.53-.21-.53-.95-.63-1.41s-.27-1.39-.6-1.58a4.6 4.6 0 0 0-1.74-.11 6.76 6.76 0 0 0-1.8 0c-.42.16-.51 1-.63 1.45s-.23 1.34-.49 1.55-1.18.2-1.38-.19a3.32 3.32 0 0 1 .17-1.45c.66-2.57 1.47-5.27 2.18-7.79.32-1.03.45-1.88 1.65-2.05zm.08 1.58a42.89 42.89 0 0 0-1.15 4.2c-.11.45-.37 1 0 1.39.43.07.91 0 1.47 0 .37 0 1.15.15 1.36-.08s0-1.07-.11-1.45c-.22-1-.45-1.88-.68-2.81a3.82 3.82 0 0 0-.44-1.3.57.57 0 0 0-.48.05zM12.36 11.21c2.57-.12 5 .35 5 3.11a3.12 3.12 0 0 1-1.1 2.47c-.2.17-.79.31-.89.66-.15.51.33.94.54 1.25.63.91.91 1.35 1.5 2.21.23.34.67.74.63 1.2a.89.89 0 0 1-1.2.58c-.46-.15-.68-.7-.93-1.09-.51-.85-1-1.66-1.52-2.46a2.69 2.69 0 0 0-.93-1.06c-.35-.15-1.09-.19-1.31.16s-.11 2.31-.11 3.16c0 .43 0 .86-.11 1.07a1 1 0 0 1-1.36 0c-.31-.33-.19-1.71-.19-2.5v-5.4a10.24 10.24 0 0 1 .1-2.57c.28-.7 1-.75 1.88-.79zm-.27 1.63a2.89 2.89 0 0 0 0 .66v1.63a4.8 4.8 0 0 0 .06 1.58c.19.31.87.28 1.44.22a3.07 3.07 0 0 0 1.31-.4 2.8 2.8 0 0 0 .55-3.31 2.8 2.8 0 0 0-2.57-.76c-.31.03-.69.09-.79.38zM21.46 11.24c.56-.06 1.37 0 2.24 0 .46 0 1.79-.15 2.1.11a.87.87 0 0 1-.11 1.2 5.52 5.52 0 0 1-1.88.08h-1a2.52 2.52 0 0 0-.9.05c-.25.18-.14 1.19-.14 1.67a5.65 5.65 0 0 0 .08 1.65c.14.16.65.09.9.09h.95a6.31 6.31 0 0 1 1.86.05c.35.22.16 1-.06 1.14a5.34 5.34 0 0 1-1.77.09c-.47 0-1.5-.15-1.8.05s-.14 1.43-.14 1.83v1c0 .28-.05.75.06.9s1.61.11 2 .11a7.15 7.15 0 0 1 2.13.08c.24.15.38 1 0 1.25a3.55 3.55 0 0 1-1.15 0 32.7 32.7 0 0 1-3.57 0 1.38 1.38 0 0 1-1-.57 6.34 6.34 0 0 1-.16-2.4v-5.17a8.74 8.74 0 0 1 .09-2.53 1.48 1.48 0 0 1 1.27-.68zM29.64 12.63c-.57-.22-1.84.23-2.31-.11a.83.83 0 0 1 .24-1.31 9 9 0 0 1 1.64 0h3.27a4.15 4.15 0 0 1 1.52.11 1 1 0 0 1 0 1.2c-.47.29-1.82-.17-2.29.11s-.22 1.62-.22 2.29v6.26a4.2 4.2 0 0 1 0 1.18 1 1 0 0 1-1.53 0 3.42 3.42 0 0 1-.06-1.2v-7.5c-.07-.35-.01-.76-.26-1.03zM37.68 17.42a3.82 3.82 0 0 0-.16 1.83c0 .5-.14 1.65.06 1.91s1.63.11 2 .11h1.09a2.33 2.33 0 0 1 1 .05 1 1 0 0 1 0 1.28 9.48 9.48 0 0 1-2.35 0c-1.68 0-3.5.34-3.57-1.25s0-3 0-4.77v-2.4a9.22 9.22 0 0 1 .08-2.31c.42-.94 2.09-.71 3.49-.71.44 0 1.8-.15 2.1.11a.88.88 0 0 1-.11 1.2 5 5 0 0 1-1.88.08h-1a2.51 2.51 0 0 0-.9.05c-.26.18-.14 1.25-.14 1.67v.89c0 .24-.06.69.06.82s1.52.09 1.88.09c.62 0 1.57-.14 1.85.08a.84.84 0 0 1-.08 1.11c-.36.24-1.28.09-1.75.09-.53.05-1.13.03-1.67.07zM20.65.06q1.44 4.83 2.86 9.67h-.71c-.78-2.4-1.6-4.82-2.4-7.22-.26-.79-.54-1.59-.73-2.39a1.35 1.35 0 0 1 .98-.06zM21.41.22a10.52 10.52 0 0 1 1 .3c.81 3.07 1.62 6.16 2.42 9.24h-.73c-.86-3.19-1.8-6.34-2.69-9.54zM23.43 1c.32.11.7.4 1.06.57.56 2.74 1.18 5.41 1.72 8.17h-.71c-.7-2.88-1.36-5.83-2.07-8.74zM25.39 2a8.25 8.25 0 0 1 1 .36c.37 2.49.8 4.91 1.17 7.38h-.74c-.46-2.57-.93-5.15-1.43-7.74zM43.25 2.35a3 3 0 0 1-.19.93c-.61 2.17-1.44 4.31-2.06 6.48h-.73c.53-1.88 1.21-4 1.8-6a5 5 0 0 1 .24-.84c.19-.28.68-.38.93-.57zM27.19 2.57a3.77 3.77 0 0 0 .93.11c.26 2.34.57 4.79.79 7.08h-.71c-.35-2.38-.68-4.76-1.01-7.19zM29.81 2.87c.17 2.28.31 4.59.46 6.89h-.73c-.22-2.33-.42-4.69-.66-7a2.93 2.93 0 0 1 .93.11zM31.5 3.36c.05 2.11.06 4.27.13 6.37a3.45 3.45 0 0 1-.73 0c-.12-2.21-.22-4.45-.3-6.7.32.1.59.24.9.33zM41.37 3.41c-.49 2.08-1.12 4.25-1.67 6.35H39c.47-2.08 1-4.12 1.48-6.16a3.59 3.59 0 0 0 .89-.19zM32.26 3.71c.3.12.58.26.87.39C33.08 6 33 7.88 33 9.76h-.74c-.04-2.04-.01-4.04 0-6.05zM39.62 3.71a5.45 5.45 0 0 1-.28 1.47c-.33 1.49-.64 3.08-1 4.58h-.74c.37-2 .79-4 1.14-6a5.77 5.77 0 0 0 .88-.05zM38 3.76a7.7 7.7 0 0 1-.19 1.48c-.24 1.46-.53 3-.79 4.52h-.71c.24-2 .57-3.85.82-5.8.28-.06.53-.16.87-.2zM36.32 4.26c-.16 1.78-.45 3.67-.65 5.5h-.74c.17-1.74.33-3.5.52-5.23a2 2 0 0 0 .87-.27zM34.71 4.53c-.13 1.74-.24 3.51-.4 5.23h-.71c0-1.83.19-3.57.24-5.39.24 0 .58.13.87.16z"/></svg>