<svg id="Layer_1" data-name="Layer 1" xmlns="http://www.w3.org/2000/svg" viewBox="0 0 73.68 16.4"><defs><style>.cls-1{fill:#fff}</style></defs><title>partner-logos</title><path class="cls-1" d="M25.36 15.04v1.23h-5.01v-1.23h1.37l-2.37-1.63-2.14 1.33v.3h1.88v1.23h-5.4v-1.23h1.97v-4.18h-1.97V9.63h5.4v1.23h-1.88v2.57l4.32-2.57h-1.46V9.63h5v1.23h-1.64l-2.77 1.73 3.41 2.45h1.29zM35.51 13.36v2.91h-9.57v-1.23h1.97v-4.18h-1.97V9.63h5.48v1.23h-1.96v4.18h4.67v-1.68h1.38zM48.54 10.86h-1.95v2a3.2 3.2 0 0 1-.58 2A3.54 3.54 0 0 1 44.43 16a6.23 6.23 0 0 1-2.28.39 6.34 6.34 0 0 1-2.3-.39 3.53 3.53 0 0 1-1.56-1.18 3.33 3.33 0 0 1-.56-2v-2h-2V9.63H41v1.23h-1.73v2a1.93 1.93 0 0 0 .77 1.7 3.56 3.56 0 0 0 2.08.54 3.67 3.67 0 0 0 2.09-.54 2 2 0 0 0 .79-1.7v-2h-1.7V9.63h5.24zM60 14.39a1.6 1.6 0 0 1-.67 1.39 3.32 3.32 0 0 1-2 .5H49V15h2v-4.14h-2V9.63h8.11a2.58 2.58 0 0 1 1.72.5 1.57 1.57 0 0 1 .59 1.29 1.54 1.54 0 0 1-.77 1.37 1.58 1.58 0 0 1 1.35 1.6m-7.41-3.53v1.56h4.19a1.51 1.51 0 0 0 .84-.19.78.78 0 0 0 0-1.19 1 1 0 0 0-.57-.18zm5.84 3.41a.65.65 0 0 0-.26-.57 1.41 1.41 0 0 0-.82-.17h-4.76V15h4.66c.79 0 1.18-.26 1.18-.77M6.25 5.08v1.37h1.93v1.24H2.75V6.45h1.93V5.14L1.41 2.28H0V1.05h4.27v1.23h-.86l2.21 1.97 2.1-1.97H6.64V1.05h4.27v1.23H9.3l-3.05 2.8zM20.89 3.73V2.28h-5.78v1.59h2.59v-.8h1.23v2.75H17.7v-.8h-2.59v1.43h5.78V5.01h1.39v2.68H11.61V6.45h1.96V2.28h-1.96V1.05h10.67v2.68h-1.39zM31.41 4.21a3 3 0 0 1 1.27.69 1.43 1.43 0 0 1 .4 1 1.55 1.55 0 0 1-.82 1.37 4.33 4.33 0 0 1-2.26.56 8.46 8.46 0 0 1-2.27-.32 9.34 9.34 0 0 1-2.16-.91v1.09h-1.43V5.2l1-.2a7.39 7.39 0 0 0 2.25 1.21 8.58 8.58 0 0 0 2.61.41 2.67 2.67 0 0 0 1.09-.17.56.56 0 0 0 .37-.5.4.4 0 0 0-.28-.37 3.75 3.75 0 0 0-.94-.24C29.79 5.26 29 5.17 28 5a11.44 11.44 0 0 1-2.21-.45 2.66 2.66 0 0 1-1.2-.69 1.45 1.45 0 0 1-.39-1.05 1.58 1.58 0 0 1 .8-1.38 4.59 4.59 0 0 1 2.4-.5 7.35 7.35 0 0 1 2 .27 7 7 0 0 1 1.83.8v-.95h1.39v2.44l-.93.18a4.88 4.88 0 0 0-1.85-1.12 7.23 7.23 0 0 0-2.42-.4 2.93 2.93 0 0 0-1.17.2c-.3.12-.45.29-.45.49a.41.41 0 0 0 .27.37 3.36 3.36 0 0 0 .89.24c.41.07 1.11.17 2.09.3a14.91 14.91 0 0 1 2.36.46M62.7 2.27h-1.97v5.48l-.84.01-7.12-4.84v3.53h2.14v1.24h-5.62V6.45h1.97V2.27h-1.97V1.05h3.48l6.54 4.43V2.27h-1.97V1.05h5.36v1.22zM65.68 7.37a4.56 4.56 0 0 1-1.89-1.24 2.64 2.64 0 0 1-.69-1.76 2.68 2.68 0 0 1 .69-1.77 4.65 4.65 0 0 1 1.89-1.24 8.45 8.45 0 0 1 5.44 0A4.62 4.62 0 0 1 73 2.6a2.67 2.67 0 0 1 .68 1.77A2.63 2.63 0 0 1 73 6.13a4.52 4.52 0 0 1-1.88 1.24 7.94 7.94 0 0 1-2.71.44 8 8 0 0 1-2.73-.44m4.64-1.11a3 3 0 0 0 1.28-.78 1.67 1.67 0 0 0 .4-1.11 1.75 1.75 0 0 0-.44-1.14 3.08 3.08 0 0 0-1.27-.77 5.91 5.91 0 0 0-1.93-.28 6 6 0 0 0-2 .28 2.9 2.9 0 0 0-1.26.79 1.64 1.64 0 0 0-.43 1.12 1.66 1.66 0 0 0 .43 1.13 2.79 2.79 0 0 0 1.26.77 6.27 6.27 0 0 0 2 .28 5.87 5.87 0 0 0 1.92-.29M42.67 3.38l-1.11 1.79h4.6v1.69h-5.64l-1.03 1.65h-1.81l1.02-1.65h-2.42V5.17h3.45l1.11-1.79h-4.56v-1.7h5.61L42.93 0h1.82l-1.03 1.68h2.44v1.7h-3.49z"/></svg>