<svg id="Layer_1" data-name="Layer 1" xmlns="http://www.w3.org/2000/svg" viewBox="0 0 59.9 21.72"><defs><style>.cls-1{fill:#fff}</style></defs><title>partner-logos</title><path class="cls-1" d="M28.92.05h.58l2.58 5.81h-.84l-.77-1.71H28l-.73 1.71h-.85zm1.21 3.36l-.93-2.09-.87 2.09zM31.38.07h4.82v.74h-2v5.05h-.83V.81h-2zM37 .08h3.28v.74h-2.47v1.76h2.37v.74h-2.37v1.79h2.53v.74H37zM45.81.08h.78v5.78h-.71L42 1.41v4.45h-.78V.08h.67l3.9 4.49zM47.83.08h3.27v.74h-2.45v1.76H51v.74h-2.35v1.79h2.53v.74h-3.35zM54.89 0a3.07 3.07 0 0 1 2.23.85A2.78 2.78 0 0 1 58 3a2.78 2.78 0 0 1-.9 2.12 3.24 3.24 0 0 1-2.27.83 3.05 3.05 0 0 1-2.18-.83A2.84 2.84 0 0 1 51.8 3a2.85 2.85 0 0 1 .88-2.15A3 3 0 0 1 54.89 0zm0 .79a2.24 2.24 0 0 0-1.63.61 2.13 2.13 0 0 0-.6 1.6 2.05 2.05 0 0 0 .64 1.55 2.19 2.19 0 0 0 1.6.62 2.22 2.22 0 0 0 1.62-.63A2.11 2.11 0 0 0 57.16 3a2.07 2.07 0 0 0-.64-1.55 2.18 2.18 0 0 0-1.59-.66zM28.92 7.85h.58l2.58 5.81h-.84L30.47 12H28l-.73 1.71h-.85zm1.21 3.36l-.93-2.1-.87 2.1zM32.74 13.66V7.88h1.45a2.08 2.08 0 0 1 1.39.43 1.59 1.59 0 0 1 .26 2 1.44 1.44 0 0 1-.72.55 2.28 2.28 0 0 1 .54.5 7.73 7.73 0 0 1 .74 1.09c.21.33.37.58.49.74l.31.42h-1l-.2-.33-.05-.07-.2-.21-.26-.42-.28-.44a3.76 3.76 0 0 0-.46-.57 2.27 2.27 0 0 0-.39-.31 1.31 1.31 0 0 0-.58-.09h-.21v2.52zm1.08-5.08h-.25v1.83h.31a2.42 2.42 0 0 0 .87-.11.82.82 0 0 0 .36-.33 1 1 0 0 0 0-1 .81.81 0 0 0-.41-.32 3 3 0 0 0-.88-.07zM36.58 7.87h4.82v.74h-2v5.05h-.83V8.61h-2zM29.83 18.61h1.94v2.45a5.27 5.27 0 0 1-2.12.46 3.14 3.14 0 0 1-2.29-.84 2.76 2.76 0 0 1-.85-2.06 2.89 2.89 0 0 1 .88-2.16 3.11 3.11 0 0 1 2.23-.86 4 4 0 0 1 .93.11 7.57 7.57 0 0 1 1.11.39v.84a4.06 4.06 0 0 0-2.05-.6A2.26 2.26 0 0 0 28 20.18a2.33 2.33 0 0 0 1.67.62 4 4 0 0 0 1.19-.23h.08v-1.2h-1.11zM34.82 15.65h.58l2.6 5.8h-.84l-.77-1.71h-2.48l-.72 1.71h-.85zM36 19l-.94-2.09-.82 2.09zM38.63 15.68h.82v5h2.6v.75h-3.42zM42.78 15.68h.82v5h2.6v.75h-3.42zM46.92 15.68h3.28v.73h-2.45v1.76h2.37v.74h-2.37v1.8h2.53v.74h-3.36zM51.18 21.45v-5.77h1.45a2.08 2.08 0 0 1 1.39.43 1.47 1.47 0 0 1 .52 1.18 1.49 1.49 0 0 1-.26.87 1.44 1.44 0 0 1-.72.55 2.22 2.22 0 0 1 .54.49 9.68 9.68 0 0 1 .75 1.1c.2.33.36.57.48.74l.3.41h-1l-.25-.38a.25.25 0 0 1 0-.07l-.16-.22-.25-.43-.28-.45a6.52 6.52 0 0 0-.47-.57 2.74 2.74 0 0 0-.39-.3 1.31 1.31 0 0 0-.58-.09H52v2.51zm1.08-5.07H52v1.83h.32a2.39 2.39 0 0 0 .86-.11.82.82 0 0 0 .36-.33 1 1 0 0 0 0-1 .81.81 0 0 0-.41-.32 3 3 0 0 0-.87-.07zM58.9 15.68h1l-2.13 2.72v3.05h-.85V18.4l-2.13-2.72h1l1.54 2zM16.32 7.17V0H0v3h4.37v10h12V8h4.73v9.29H0v4.55h24.31V7.17zM7.07 3h6.3v4.17h-6.3zm6.3 9.27h-6.3V7.88h6.3z"/></svg>