<svg id="Layer_1" data-name="Layer 1" xmlns="http://www.w3.org/2000/svg" viewBox="0 0 66.89 36.72"><defs><style>.cls-1{fill:#fff}</style></defs><title>WSK-Partner logos</title><g id="fpHGsP"><path class="cls-1" d="M27.54 24.39a11.84 11.84 0 0 0 1.15-.81 2.64 2.64 0 0 1 3.49-.32 3.14 3.14 0 0 1 1.73 2.21c.07.44.32.58.73.57s1.11 0 1.66 0 .66-.26.73-.75a4.37 4.37 0 0 1 2.66-3.7 4.58 4.58 0 0 1 4.06.48A4.08 4.08 0 0 1 46 24.89c0 .15.42.33.63.32 1.26 0 2.51-.11 3.76-.22.57 0 .79.15.81.73.06 1.2.17 2.41.27 3.61a1.54 1.54 0 0 0 2.17 1.4 1.21 1.21 0 0 0 .61-.77A17.22 17.22 0 0 0 54.6 27c0-3.14 2.52-4.37 5-3.9a1.94 1.94 0 0 1 1.58 2c.07 1.68-.22 1.54 1.56 1.45 1.14 0 2.27-.1 3.41-.17.44 0 .66.12.64.58a3 3 0 0 0 0 .42c.09 1.53.08 1.51-1.49 1.65-1.93.18-3.87.4-5.8.63-.47 0-.56-.14-.57-.53 0-.93-.08-1.86-.2-2.78 0-.26-.29-.67-.49-.69a1.2 1.2 0 0 0-.89.36 1.57 1.57 0 0 0-.32.89c-.11 1-.24 2-.25 3a4.32 4.32 0 0 1-3.78 4.2c-2.06.28-3.37-.32-3.78-2.56a19.89 19.89 0 0 1-.25-3.45c0-.51-.12-.69-.6-.64h-.07c-2 0-1.6-.2-2 1.56a22.3 22.3 0 0 1-1 3 3.64 3.64 0 0 1-5.13 1.75 5.54 5.54 0 0 1-3.18-4.37c-.06-.67-.36-1-1.1-.81s-1.7.24-2.54.39c-.49.09-.71 0-.77-.55a5.62 5.62 0 0 0-.46-1.66 2 2 0 0 0-3.44-.45 5.09 5.09 0 0 0-1.16 3.89c.11 1 .24 2.08.33 3.12s-.16 1.5-1.33 1.67c-1.59.22-3.18.4-4.77.58-1.16.12-2.31.2-3.47.32-.5 0-.69-.14-.73-.65-.18-2.13-.4-4.25-.58-6.37 0-.45-.2-.72-.66-.72h-4.38c-.61 0-.81.2-.82.86a10.48 10.48 0 0 1-1.41 5.46A4.28 4.28 0 0 1 5 36.63c-2.27-.41-3.66-1.22-4.19-3.39a23.15 23.15 0 0 1-.56-2.85A25.87 25.87 0 0 1 0 26.46a16.07 16.07 0 0 1 1.33-6.21 4.37 4.37 0 0 1 2.08-2.6 4.35 4.35 0 0 1 4 .23 6.91 6.91 0 0 1 3.14 4.95c.16.89.34 1.77.57 2.64a.67.67 0 0 0 .52.38c1.56 0 3.11 0 4.67-.05.54 0 .66-.26.63-.74-.09-1.7-.12-3.39-.24-5.08 0-.62.11-.84.74-.83 1.14 0 1.12 0 1.22 1.13.14 1.61.33 3.22.47 4.83 0 .38.19.56.56.55.74 0 1.49 0 2.23-.09s1 0 1 .78a3.65 3.65 0 0 0 .08.55c.07.52-.17.77-.68.84-.8.11-1.6.29-2.41.38-.51.07-.63.27-.58.78.13 1.29.2 2.59.26 3.89 0 .53.21.75.77.69 1.45-.18 2.9-.31 4.35-.48.57-.06.89-.28.85-1-.17-3-.27-5.94-.4-8.91a1.23 1.23 0 0 1 1.84-1.2c.16.07.27.4.29.62v1.77zm-25.75 3c.1.78.15 1.57.31 2.33A17.64 17.64 0 0 0 2.74 32a3 3 0 0 0 3.74 1.84c.51-.16 1-.44 1.46-.64a2 2 0 0 0 1.15-1.48 13.94 13.94 0 0 0 0-7.14c-.4-1.43-.7-2.93-2-3.91a2.62 2.62 0 0 0-3.41.51 11.25 11.25 0 0 0-1.89 6.18zm36.65-.28c0 1.76.38 3.26 2.16 4.09a2.53 2.53 0 0 0 3.15-.8 5.1 5.1 0 0 0 .54-4.47 4.3 4.3 0 0 0-1-1.76c-1.16-1.21-4.67-.5-4.73 1.63-.01.41-.08.84-.12 1.28z"/><path class="cls-1" d="M15 15.21h2.43c.45 0 .67.1.7.61.08 1.59.1 1.59-1.49 1.72-2.13.17-4.26.33-6.38.53-.53.05-.71-.12-.72-.63 0-2.09-.1-4.18-.13-6.27 0-.54-.15-.76-.72-.71s-1.21.19-1.55-.07-.21-1-.27-1.47c-.13-1.16-.13-1.18 1-1.19.52 0 .75-.12.73-.71C8.52 5 8.5 2.93 8.44.89c0-.48.05-.83.64-.83s1.23-.34 1.37.57.28 2.07.35 3.11.07 2.17.11 3.26c0 .91.14 1 1 1 1.79 0 3.57-.06 5.36-.07a1.32 1.32 0 0 0 1.3-1 12.11 12.11 0 0 1 .72-1.65 2.55 2.55 0 0 1 2.15-1.64 22.91 22.91 0 0 1 3.31 0 2.86 2.86 0 0 1 2.52 2.58c.16.92.36 1.06 1.35 1s2.18-.1 3.27-.13c.81 0 .74 0 .75.82 0 2 .09 4.08.2 6.11A1.19 1.19 0 0 0 34 15.16a1.77 1.77 0 0 0 1.25-.66 5.3 5.3 0 0 0 .75-3.4c0-.67-.05-1.35 0-2a2.63 2.63 0 0 1 2.68-2.75 20.7 20.7 0 0 1 2.23 0 1.91 1.91 0 0 1 1.72 1.75c.12.85.29 1.69.41 2.53.08.52.33.65.82.57s1.1-.14 1.66-.2c.37 0 .57.12.56.51v.07c0 2.06.25 1.68-1.66 1.75-.85 0-1.71 0-2.57.07-.67 0-.85-.38-.88-.91 0-.78 0-1.58-.11-2.36a1.48 1.48 0 0 0-.56-1 1.21 1.21 0 0 0-1.61.42 5.91 5.91 0 0 0-.56 1.45c-.3 1.33-.47 2.69-.83 4a3.55 3.55 0 0 1-2.18 2.39 2.81 2.81 0 0 1-1.65 0 3.8 3.8 0 0 1-2.91-3.71v-3.27c0-1.09 0-1.08-1-1.15a2.37 2.37 0 0 0-2.74 1.51 5.47 5.47 0 0 1-4.27 2.92c-1.51.24-4.07-.78-4.34-2.58-.13-.83-.65-1-1.45-1-1.6.12-3.2.16-4.8.22-.49 0-.66.22-.6.7.16 1.24.27 2.49.47 3.72 0 .18.4.41.62.42h2.51zm7.67-3.77c1.89 0 3.48-1.25 3.38-2.79-.13-2-.93-3.17-3.21-3.17C21 5.49 20 6.54 20 8.66c-.07 1.34 1.06 3.04 2.65 2.78z"/></g></svg>