<svg id="Layer_1" data-name="Layer 1" xmlns="http://www.w3.org/2000/svg" viewBox="0 0 28.82 24.89"><defs><style>.cls-1{fill:#fff;fill-rule:evenodd}</style></defs><title>partner-logos</title><path class="cls-1" d="M13.75 0H15a8.17 8.17 0 0 1 5.29 2.56 8 8 0 0 1 2.22 5.6 8.13 8.13 0 0 1-9 8.09 8.36 8.36 0 0 0-1.27-.25c-.16 0-.34.17-.51.24-.59.24-1.09.37-1.72.57V15c-1.89-1.43-3.57-3.24-3.74-6.3a7.86 7.86 0 0 1 2.39-6.31A8.21 8.21 0 0 1 13.75 0zm6.91 12a7.46 7.46 0 0 0 .95-5.49A7.22 7.22 0 0 0 19 2.36 7.49 7.49 0 0 0 13.82.78a7.3 7.3 0 0 0-6.44 5.09 7.43 7.43 0 0 0 2.26 7.88c.1.09.21.28.37.24V9.57c0-1.51-.11-3 0-4.45a4.34 4.34 0 0 1 4.38-4 4.39 4.39 0 0 1 4.42 4.32 11.9 11.9 0 0 1-3 7.92c.41.53.64 1.23 1.08 1.72A7.12 7.12 0 0 0 20.66 12zm-8.22-9.51a3.19 3.19 0 0 1 1.31.24c.19.08.55.48.68.47s.25-.25.34-.3a3.4 3.4 0 0 1 1.58-.44 3.76 3.76 0 0 0-3.91.03zm4.79 4.82A2.61 2.61 0 0 0 18 4.92a2.89 2.89 0 0 0-.57-1.41 2.19 2.19 0 0 0-2.6.06c-.11.1-.34.51-.44.51a3.77 3.77 0 0 1-.3-.34 3.58 3.58 0 0 0-.34-.34 2.15 2.15 0 0 0-2.36.11A3.29 3.29 0 0 0 11.22 7c.73.94 2.43.75 3.21 1.62.7-.84 1.95-.7 2.8-1.31zm-3.58 3.54a3.56 3.56 0 0 0 .44-1.65c-.09-.45-1.09-.73-1.62-.87a3.3 3.3 0 0 1-1.65-.88v6.61a6.23 6.23 0 0 0 2.83-3.21zm1.18-1.78a7.62 7.62 0 0 1-4 5.9 3.57 3.57 0 0 0 0 .81 10.75 10.75 0 0 0 7-8.2c-.7.82-2.3.7-3 1.49zm.41 4.82c-.1.17-.29.24-.41.4.25.36.46.76.68 1.15.2 0 .36-.09.57-.1a7.33 7.33 0 0 0-.84-1.45zm-1 .91a11 11 0 0 0-1 .64 4.9 4.9 0 0 0 1.38 0 4.94 4.94 0 0 1-.36-.64z"/><path class="cls-1" d="M14.39 7.38c.16-.16.49-.31.58-.57a7.15 7.15 0 0 0 .07-1c.11-.66.66-.72 1.65-.68.18.91-.21 1.52-1.18 1.39a2.07 2.07 0 0 1-1.08 1.41 1.82 1.82 0 0 1-1.11-1.41c-1 .13-1.37-.44-1.22-1.29a.11.11 0 0 1 .07-.1c.82 0 1.34 0 1.55.48s0 .88.17 1.28c.11.22.35.32.5.49zM16.15 24.81h-.74v-1.08a10 10 0 0 0-1.35 0v1.11h-.78c.06-1.78-.39-3.83 1.18-4a1.41 1.41 0 0 1 1.69 1.11c.14.77-.15 1.86 0 2.86zm-.91-3.14a.79.79 0 0 0-1.08.07c-.22.32 0 .75-.1 1.22h1.35c-.03-.53.07-1.03-.17-1.29zM20.9 24.88h-.51c-2.18-.29-2.21-3.82-.06-4.11a1.79 1.79 0 0 1 2.09 1.31h-.78c-.26-.32-.35-.48-.67-.57-1.59-.48-2 2.28-.61 2.62a1.07 1.07 0 0 0 1.35-.8h-1a3 3 0 0 1 0-.75h1.78a2 2 0 0 1-1.59 2.3zM28.82 22.58v.48a2 2 0 0 1-1.68 1.82h-.51a5.31 5.31 0 0 1-.71-.24c-1.63-.92-1.08-4.21 1.28-3.87a2 2 0 0 1 1.62 1.81zm-2.63-.87c-.81.64-.55 2.75 1 2.42 1.36-.28 1.06-2.8-.4-2.62a1.08 1.08 0 0 0-.6.2zM0 20.87a2.93 2.93 0 0 1 .74 0v1.58c.52-.07 1.06.15 1.28-.17s0-.9.07-1.44a3.29 3.29 0 0 1 .78 0c0 .78.1 1.68-.41 2 .56.24.38 1.2.41 2a3.88 3.88 0 0 1-.78 0c-.11-.55.19-1.19-.1-1.49s-.76 0-1.25-.1v1.62H0zM9.34 24.88h-.41c-.3.11-.74-.5-.84-.51s-.48.56-.84.51h-.44c-1.61-.14-1.16-2.33-1.21-4a3.2 3.2 0 0 1 .77 0c.17 1.12-.48 3.25.67 3.23s.47-2.17.65-3.26a3.2 3.2 0 0 1 .77 0c.2.8-.31 2.34.1 3a.74.74 0 0 0 1 .1c.57-.53 0-2.16.2-3.1a2.93 2.93 0 0 1 .74 0c0 1.72.5 3.91-1.16 4.03z"/></svg>